<?xml version="1.0" encoding="UTF-8" standalone="no"?>
<svg
   xmlns:dc="http://purl.org/dc/elements/1.1/"
   xmlns:cc="http://creativecommons.org/ns#"
   xmlns:rdf="http://www.w3.org/1999/02/22-rdf-syntax-ns#"
   xmlns:svg="http://www.w3.org/2000/svg"
   xmlns="http://www.w3.org/2000/svg"
   viewBox="0 0 425.43875 130.27448"
   height="130.27448"
   width="425.43875"
   xml:space="preserve"
   id="svg2"
   version="1.1"><metadata
     id="metadata8"><rdf:RDF><cc:Work
         rdf:about=""><dc:format>image/svg+xml</dc:format><dc:type
           rdf:resource="http://purl.org/dc/dcmitype/StillImage" /></cc:Work></rdf:RDF></metadata><defs
     id="defs6" /><g
     transform="matrix(1.3333333,0,0,-1.3333333,8.5973025e-5,130.27453)"
     id="g10"><g
       transform="scale(0.1)"
       id="g12"><path
         id="path14"
         style="fill:#017aaf;fill-opacity:1;fill-rule:nonzero;stroke:none"
         d="m 2657.63,197.563 h -69.45 v 71.511 h 52.29 v -20.445 h 15.08 v 56.824 l -15.08,-0.422 v -19.59 h -52.29 v 68.235 h 67.01 v -21.25 h 14.7 v 37.625 h -15.14 -128.31 v -15.117 h 30.66 V 196.332 h -30.66 v -15.117 h 146.29 v 37.976 h -15.1 z m -177.54,172.488 h -165.13 v -37.625 h 14.73 v 21.25 h 59.66 V 196.332 h -34.76 v -15.117 h 100.55 v 15.117 h -34.76 v 157.344 h 59.71 v -21.25 h 15.13 v 37.625 z m -272.27,-16.375 h 30.61 v -102.11 c 0,-33.164 -21.99,-56.886 -52.71,-56.886 -29.83,0 -49.84,22.922 -49.84,56.379 v 102.617 h 31.06 v 16.375 h -92.82 v -16.375 h 31.1 V 242.512 c 0,-38.407 31.88,-66.582 75.6,-66.582 46.6,0 78.5,30.215 78.5,74.367 v 103.379 h 30.65 v 16.375 h -82.15 z m -174.93,16.375 h -165.11 v -37.625 h 14.68 v 21.25 h 59.71 V 196.332 h -34.73 v -15.117 h 100.51 v 15.117 h -34.76 v 157.344 h 59.7 v -21.25 h 15.13 v 37.625 z M 1744.2,353.676 h 30.64 V 196.332 h -30.64 v -15.117 h 92.29 v 15.117 h -30.6 v 157.344 h 30.6 v 16.375 h -92.29 z m -46.36,16.375 h -165.12 v -37.625 h 14.68 v 21.25 h 59.7 V 196.332 h -34.75 v -15.117 h 100.54 v 15.117 h -34.74 v 157.344 h 59.69 v -21.25 h 15.09 v 37.625 z M 1400.59,178.793 v 10.594 c 15.98,-9.012 30.65,-13.457 46.19,-13.457 33.92,0 59.29,23.254 59.29,53.925 0,26.543 -9.84,39.61 -44.98,59.258 -8.6,4.875 -18.39,10.617 -28.99,16.739 -13.92,8.164 -18.44,13.886 -18.44,24.543 0,16.746 12.7,27.363 31.89,27.363 11.04,0 18.41,-2.024 34.34,-10.617 v -14.715 h 15.12 v 43.347 h -15.12 v -10.214 c -11.86,6.496 -23.73,9.394 -37.19,9.394 -32.69,0 -58.46,-23.308 -58.46,-52.754 0,-24.082 12.27,-38.367 48.24,-56.386 33.91,-17.184 44.95,-27.801 44.95,-43.329 0,-15.929 -14.73,-27.375 -35.17,-27.375 -13.89,0 -25.32,3.664 -41.67,13.469 v 19.5 h -15.13 v -49.285 z m -79.6,-0.828 v 175.711 h 30.68 v 16.375 h -82.21 v -16.375 h 31.1 V 236.781 l -114.84,133.27 h -52.77 v -16.375 h 28.61 l 8.2,-10.625 V 196.332 h -30.65 v -15.117 h 82.14 v 15.117 h -31.07 v 120.586 l 118.54,-138.953 z m -227.91,3.25 v 15.117 h -30.64 v 239.504 h 30.64 v 15.133 h -97.299 v -15.133 h 30.659 V 196.332 H 995.781 V 181.215 Z M 2908.76,541.09 v -15.11 h 96.81 c 56.44,0 98.92,40.481 98.92,94.415 0,52.71 -43.33,94.406 -98.92,94.406 h -96.81 v -15.129 h 30.6 V 541.09 Z m 93.55,1.226 h -31.88 v 156.125 h 32.3 c 37.6,0 66.6,-34.296 66.6,-78.457 0,-44.132 -29,-77.668 -67.02,-77.668 z m -160.93,-19.597 v 175.722 h 30.67 v 16.36 h -82.22 v -16.36 h 31.12 V 581.566 l -114.84,133.235 h -52.79 v -16.36 h 28.64 l 8.19,-10.621 V 541.09 h -30.64 v -15.11 h 82.15 v 15.11 h -31.09 v 120.551 l 118.54,-138.922 z m -227.8,3.261 v 15.11 h -30.66 v 157.351 h 30.66 v 16.36 h -92.38 v -16.36 h 30.67 V 541.09 h -30.67 v -15.11 z m -135.13,0 v 15.11 h -30.65 v 239.515 h 30.65 v 15.118 h -63.74 l -96.08,-208.434 -93.12,208.434 h -65.83 v -15.118 h 31.04 V 541.09 h -31.04 v -15.11 h 82.55 v 15.11 h -31.09 V 746.668 L 2311.68,521.879 2411.87,742.16 V 541.09 h -30.68 v -15.11 z m -659.27,15.11 v -15.11 h 96.87 c 56.41,0 98.91,40.481 98.91,94.415 0,52.71 -43.3,94.406 -98.91,94.406 h -96.87 v -15.129 h 30.64 V 541.09 Z m 93.61,1.226 h -31.88 v 156.125 h 32.31 c 37.58,0 66.61,-34.296 66.61,-78.457 0,-44.132 -29.03,-77.668 -67.04,-77.668 z M 1786.43,525.98 v 37.618 h -14.75 v -21.282 h -68.66 v 156.125 h 30.64 v 16.36 h -92.33 v -16.36 h 30.6 V 541.09 h -30.6 v -15.11 z m -189.06,0 v 15.11 h -30.67 v 157.351 h 30.67 v 16.36 h -92.35 v -16.36 h 30.65 V 541.09 h -30.65 v -15.11 z m -136.76,0 v 15.11 h -30.64 v 158.582 h 30.64 v 15.129 h -92.35 v -15.129 h 30.2 v -69.871 h -111.55 v 69.871 h 30.64 v 15.129 h -92.36 v -15.129 h 30.68 V 541.09 h -30.68 v -15.11 h 92.36 v 15.11 h -30.64 v 72.32 h 111.55 v -72.32 h -30.2 v -15.11 z m -276.38,11.864 c -33.94,-12.703 -56.79,-17.207 -86.6,-17.207 -83.83,0 -145.169,58.898 -145.169,139.816 0,78.856 61.339,140.164 140.239,140.164 28.17,0 48.66,-4.082 71.9,-15.121 v 15.527 h 19.23 v -66.585 h -19.23 v 20.039 c -24.88,18.347 -43.32,25.296 -69.49,25.296 -59.24,0 -102.18,-48.226 -102.18,-115.25 0,-51.902 20.47,-88.269 61.75,-109.929 15.53,-8.172 31.86,-12.688 47,-12.688 20.03,0 36.77,5.754 62.92,20.449 v 26.965 h 19.63 v -51.476 0" /><path
         id="path16"
         style="fill:#a6b3a5;fill-opacity:1;fill-rule:nonzero;stroke:none"
         d="m 620.633,663.297 c -28.137,-0.324 -38.528,-18.117 -38.93,-34.66 0.293,-9.817 4.723,-33.387 39.746,-33.606 28.098,-0.176 43.332,15.977 51.992,37.387 -11.57,16.852 -26.074,30.648 -52.808,30.879 z M 365.387,952.246 C 275.871,952.246 190.156,913.652 124.016,843.59 60.9297,776.746 24.7773,690.176 24.8047,606.02 25.0391,482.66 70.9102,423.578 146.914,325.715 181.699,281.145 199.438,232.719 199.23,181.793 198.926,109.672 164.367,52.4453 155.625,33.668 c -1.289,-2.7774 -1.906,-5.8828 0.277,-7.6016 3.758,-2.9492 8.868,-0.0391 10.813,0.8789 75.23,35.4102 190.976,57.9102 258.519,63.918 49.926,4.4336 84.254,3.0586 84.254,3.0586 0.032,20.3481 1.731,38.6411 4.942,53.1911 6.472,30.164 24.074,52.821 49.519,63.762 21.36,9.336 43.879,10.215 63.321,10.281 0,0 41.984,-2.91 65.128,14.442 13.286,9.961 20.411,17.09 22.094,35.644 1.188,13.02 -1.754,23.098 -0.527,31.555 3.226,22.266 11.504,29.656 11.297,34.344 -0.078,2.336 -16.578,15.832 -26.496,17.519 -1.133,0.195 -11.543,1.965 -11.922,12.426 -0.223,5.957 4.031,11.16 9.832,12.379 0,0 32.347,7.394 34.887,16.348 1.476,5.207 -1.563,9.445 -4.879,14.503 -7.348,11.211 -10.496,21.004 -10.258,28.719 0.25,7.863 3.344,17.188 12.758,24.192 17.406,12.949 33.121,13.464 32.921,27.199 -0.207,13.902 -11.546,25.64 -25.308,41.328 -14.848,16.926 -47.891,66.695 -48.727,75 -12.746,-21.887 -39.074,-36.922 -66.66,-36.555 -52.281,0.692 -65.414,40.196 -64.66,60.477 0.91,24.844 20.586,58.094 64.07,57.48 19.078,-0.261 40.43,-5.75 59.957,-25.312 0.559,5.109 9.395,62.023 -37.668,140.836 -55.816,93.492 -158.574,148.554 -277.722,148.566 z M 133.633,45.1875 c 20.793,38.2617 39.246,79.1525 40.773,136.6055 1.219,45.887 -15.422,87.984 -47.082,128.68 C 53.2813,405.297 -0.214844,473.832 0,606.039 c 0.117188,90.609 38.7422,183.434 105.977,254.633 70.656,74.844 166.601,116.387 259.41,116.387 151.472,0 265.324,-82.582 314.554,-190.012 22.985,-50.145 34.008,-107.262 20.836,-151.582 3.504,-6.02 15.536,-28.863 20.512,-39.055 21.852,-44.781 65.641,-67.988 65.641,-106.027 0,-23.496 -19.707,-33.875 -19.707,-33.875 -5.836,-4.641 -25.977,-11.328 -25.977,-17.879 0,-10.07 16.117,-24.145 15.692,-40.324 -0.223,-8.371 -3.762,-23.34 -24.969,-33.164 12.297,-9.715 25.64,-21.164 12.988,-45.911 -12.961,-25.339 -1.594,-30.742 -5.984,-52.5 -5.039,-24.96 -14.227,-39.558 -32.805,-51.777 -17.996,-11.961 -41.992,-18.613 -67.559,-18.691 0,0 -41.441,2.336 -64.636,-8.086 -19.051,-8.551 -29.907,-22.957 -35.305,-46.446 -3.914,-17.625 -4.277,-48.3394 -4.277,-48.8941 56.906,-3.5429 108.918,-14.707 154.66,-33.1836 0.047,-0.0195 0.117,-0.0507 0.164,-0.0781 6.34,-2.5664 9.394,-9.7969 6.836,-16.1523 -1.895,-4.7071 -6.449,-8.3125 -11.492,-7.7344 -5.344,0.625 -84.399,35.4805 -191.145,33.582 C 339.66,66.5547 218.535,24.8867 174.992,3.39063 170.254,1.08984 154.715,-4.3125 140.809,6.55469 132.652,12.9258 124.918,29.1445 133.633,45.1875" /><path
         id="path18"
         style="fill:#5ecad2;fill-opacity:1;fill-rule:nonzero;stroke:none"
         d="m 446.813,624.672 c 0.019,-5.449 3.324,-23.027 31.257,-20.352 17.293,1.657 25.207,19.883 26.368,22.586 -7.379,10.481 -15.438,18.039 -29.961,18.985 -23.922,1.554 -27.664,-15.75 -27.664,-21.219 z M 235.586,252.199 c 40.227,-22.683 79.484,-27.84 105.441,-27.461 50.739,0.766 76.821,15.742 80.832,19.2 7.141,6.234 7.684,9.765 7.95,14.406 0.359,6.121 -8.911,34.316 -8.625,48.25 0.332,16.398 7.722,30.664 21.285,38.125 10.34,5.89 23.648,8.761 40.633,8.82 13.437,0 26.132,3.426 35.031,9.395 9.715,6.652 14.297,15.007 14.39,26.32 0,1.93 -2.832,20.816 3.813,33.047 2.316,4.265 2.754,6.289 2.969,6.969 -8.008,8.351 -17.297,10.421 -17.344,10.441 -4.77,0.84 -8.254,4.949 -8.344,9.766 -0.074,4.804 3.254,9.023 7.961,10.039 0.106,0.019 21.598,4.882 22.363,10.925 0.43,3.36 -20.804,23.582 -4.433,41.938 8.105,9.082 24.648,11.027 24.648,19.34 0,6.711 -4.98,13.738 -9.597,18.746 -27.754,30.062 -38.5,55.957 -38.5,55.957 -11.637,-15.344 -23.996,-22.18 -44.454,-22.707 -36.742,-0.949 -44.96,30.156 -44.96,40.957 0,10.808 6.886,40.215 44.269,41.543 15.457,0.547 29.402,-6.113 39.024,-14.856 0.148,2.27 2.71,44.821 -25.379,89.532 -39.883,63.476 -105.266,98.629 -184.364,98.629 -59.453,0 -116.414,-25.649 -160.34,-72.215 C 97.9219,722.902 73.8672,665.363 73.9258,609.477 c 0.2344,-78.45 20.5781,-125.301 80.5472,-185.645 48.136,-48.164 75.078,-94.641 80.097,-138.156 0.899,-7.696 0.93,-31.414 1.016,-33.477 z m 105.441,-47.644 c -63.047,-2.063 -118.515,31.906 -119.445,32.441 -6.637,3.895 -6.273,12.957 -6.281,19.395 -0.016,9.882 -0.356,23.41 -0.758,26.972 -4.492,38.867 -29.492,81.328 -74.355,126.2 -63.2817,62.863 -86.7114,117.042 -86.4458,199.921 0.1836,118.063 101.4528,249.86 246.4178,250.211 86.485,0 161.914,-40.574 201.809,-108.566 18.547,-31.555 28.34,-63.684 28.371,-92.914 -0.024,-10.32 -1.25,-19.981 -3.703,-28.77 7.793,-14.644 15.832,-31.543 24.195,-42.73 17.25,-23.11 33.363,-34.629 33.363,-54.668 0,-24.66 -29.242,-29.449 -30.468,-33.859 -0.508,-4.731 10.351,-17.922 10.402,-27.786 0.027,-5.828 -2.695,-15.847 -15.195,-22.558 1.445,-1.199 11.105,-8.504 10.593,-18.27 -0.367,-7.004 -4.226,-14.64 -4.718,-15.41 -5.196,-8.262 -2.11,-20.266 -2.11,-24.941 0,-19.649 -8.152,-32.453 -23.379,-43.086 -9.172,-6.418 -19.828,-9.434 -30.703,-11.535 -13.332,-2.555 -33.429,0.05 -46.133,-7.383 -6.761,-3.953 -17.621,-12.246 -6.621,-46.114 2.45,-7.515 3.965,-14.832 4.129,-22.781 0.207,-11.133 -5.148,-21.738 -15.133,-29.844 -7.761,-6.433 -38.371,-23.925 -93.832,-23.925 v 0" /><path
         id="path20"
         style="fill:#b9d110;fill-opacity:1;fill-rule:nonzero;stroke:none"
         d="m 383.313,624.367 c -0.735,-1.617 -5.309,-12.523 -16.032,-13.66 -17.066,-1.812 -18.988,9.102 -18.988,12.313 0,3.222 1.613,13.574 16.793,12.863 7.137,-0.336 13.352,-4.453 18.227,-11.516 z m 33.832,-59.617 c -0.571,-0.859 -10.633,-5.336 -13.86,-8.984 -2.32,-2.637 -4.07,-6.094 -4.308,-9.532 -1.426,-7.382 5.961,-16.164 6.269,-17.726 -1.008,-3.031 -18.176,-1.832 -18.512,-13.043 -0.246,-8.348 11.118,-7.551 15.379,-12.973 -0.152,-0.359 -5.562,-10.148 -4.035,-20.469 1.453,-9.843 -3.023,-14.832 -7.523,-17.636 -5.078,-3.164 -12.45,-5.36 -20.172,-5.36 -10.992,-0.039 -19.313,-1.855 -26.113,-5.714 -9.016,-4.883 -14.278,-14.676 -14.278,-25.477 0,-10.254 5.281,-25.723 5.281,-29.766 0,-13.32 -34.839,-17.597 -48.953,-17.597 v 0 c -15.39,0 -38.75,2.851 -63.281,16.281 0,0 1.344,24.121 -5.871,41.375 -7.746,18.547 -22.82,39.355 -46.766,63.32 -36.691,37.012 -48.527,64.278 -48.742,112.254 -0.019,33.715 14.485,68.414 39.805,95.219 26.523,28.094 61.152,43.551 96.672,43.551 47.488,0 89.207,-22.2 111.09,-59.325 9.613,-16.328 14.988,-33.332 15.332,-48.097 -8.368,5.914 -19.446,6.812 -21.692,6.515 -22.906,0 -30.172,-18.191 -30.172,-28.593 0,-9.809 6.442,-27.629 30.489,-28.125 0.054,-0.004 16.379,-1 27.3,11.98 7.039,-14.851 21.067,-29.883 21.946,-30.879 4.019,-4.804 6.281,-8.851 4.715,-11.199 z m 5.371,25.793 c -3.754,4.559 -11.512,12.887 -17.969,26.531 -1.445,3.059 -3.106,6.133 -4.84,9.207 1.371,5.313 2.063,11.164 2.07,17.336 -0.007,18.367 -6.152,38.5 -17.726,58.238 -24.922,42.461 -71.988,67.801 -125.914,67.801 -90.344,-0.293 -153.477,-82.418 -153.653,-155.953 -0.214,-50.953 14.844,-85.808 53.75,-124.394 22.071,-22.02 36.387,-41.446 42.996,-57.586 5.583,-13.645 4.622,-36.309 4.622,-36.309 -0.114,-6.68 1.386,-8.926 4.648,-11.289 29.148,-17.219 57.27,-20.852 75.723,-20.852 h 0.097 c 32.645,0 51.055,10.356 55.996,14.438 6.579,5.437 10.356,12.762 10.129,20.293 -0.105,5.437 -1.41,10.281 -2.648,14.976 -1.031,3.918 -2.75,9.493 -2.617,14.786 0.148,6.144 1.98,8.285 5.597,10.617 5.672,3.652 17.606,3.445 17.606,3.445 7.914,0.031 19.484,1.477 29.707,8.262 9.91,6.437 17.723,18 14.848,36.281 -0.278,1.793 0.589,4.055 1.679,6.531 0.199,0.508 2.992,5.653 3.086,10.356 0.195,9.43 -9.414,11.183 -9.504,11.273 3.68,1.332 12.539,4.18 12.309,13.832 -0.184,7.543 -6.121,14.282 -6.32,15.965 0.546,0.449 6.921,3.715 8.914,4.973 4.64,2.695 9.757,8.754 9.757,16.883 0.004,12.32 -10.007,21.527 -12.343,24.359" /><path
         id="path22"
         style="fill:#017aaf;fill-opacity:1;fill-rule:nonzero;stroke:none"
         d="m 3127.46,762.355 h 4.48 c 6.38,0 10.34,0.235 11.86,0.723 1.54,0.481 2.77,1.328 3.65,2.531 0.89,1.211 1.34,2.586 1.34,4.121 0,1.493 -0.43,2.821 -1.3,3.973 -0.87,1.164 -2.11,2.004 -3.71,2.5 -1.61,0.512 -5.55,0.762 -11.84,0.762 h -4.48 z m -11.03,-30.398 v 53.508 h 11.03 c 10.34,0 16.13,-0.063 17.38,-0.149 3.67,-0.304 6.5,-1.015 8.54,-2.14 2.02,-1.113 3.72,-2.821 5.07,-5.125 1.36,-2.305 2.05,-4.856 2.05,-7.668 0,-3.856 -1.29,-7.168 -3.85,-9.903 -2.56,-2.73 -6.16,-4.441 -10.79,-5.097 1.64,-0.625 2.91,-1.278 3.8,-2.008 0.9,-0.727 2.13,-2.094 3.68,-4.113 0.4,-0.528 1.74,-2.696 4.01,-6.512 l 6.42,-10.793 h -13.63 l -4.56,8.691 c -3.07,5.821 -5.62,9.512 -7.62,11.016 -2,1.504 -4.54,2.266 -7.62,2.266 h -2.88 v -21.973 z m 23.2,67.52 c -7.04,0 -13.8,-1.727 -20.26,-5.207 -6.46,-3.465 -11.57,-8.446 -15.29,-14.942 -3.72,-6.484 -5.57,-13.289 -5.57,-20.39 0,-7.059 1.81,-13.797 5.45,-20.204 3.62,-6.406 8.7,-11.406 15.21,-15 6.5,-3.601 13.32,-5.398 20.46,-5.398 7.18,0 14.01,1.797 20.5,5.398 6.48,3.594 11.56,8.594 15.21,15 3.65,6.407 5.49,13.145 5.49,20.204 0,7.101 -1.86,13.906 -5.6,20.39 -3.72,6.496 -8.81,11.477 -15.3,14.942 -6.49,3.48 -13.25,5.207 -20.3,5.207 z m -0.07,9.863 c 8.78,0 17.22,-2.16 25.28,-6.485 8.07,-4.328 14.42,-10.515 19.02,-18.585 4.63,-8.075 6.93,-16.52 6.93,-25.332 0,-8.778 -2.25,-17.145 -6.79,-25.106 -4.53,-7.969 -10.83,-14.172 -18.92,-18.621 -8.1,-4.453 -16.6,-6.684 -25.52,-6.684 -8.91,0 -17.42,2.231 -25.52,6.684 -8.08,4.449 -14.4,10.652 -18.92,18.621 -4.52,7.961 -6.78,16.328 -6.78,25.106 0,8.812 2.3,17.257 6.92,25.332 4.61,8.07 10.95,14.257 19.02,18.585 8.07,4.325 16.5,6.485 25.28,6.485" /></g></g></svg>