<?xml version="1.0" encoding="UTF-8" standalone="no"?>
<svg
   xmlns:dc="http://purl.org/dc/elements/1.1/"
   xmlns:cc="http://creativecommons.org/ns#"
   xmlns:rdf="http://www.w3.org/1999/02/22-rdf-syntax-ns#"
   xmlns:svg="http://www.w3.org/2000/svg"
   xmlns="http://www.w3.org/2000/svg"
   xmlns:sodipodi="http://sodipodi.sourceforge.net/DTD/sodipodi-0.dtd"
   xmlns:inkscape="http://www.inkscape.org/namespaces/inkscape"
   sodipodi:docname="MATTER-Lab-mixed-logo-logogram-on-transparent-background.svg"
   inkscape:version="0.91 r13725"
   id="svg5665"
   version="1.1"
   viewBox="0 0 290 120"
   height="120pt"
   width="290pt">
  <sodipodi:namedview
     showborder="true"
     inkscape:current-layer="surface1"
     inkscape:window-maximized="1"
     inkscape:window-y="24"
     inkscape:window-x="0"
     inkscape:cy="20.209317"
     inkscape:cx="211.78598"
     inkscape:zoom="25.710403"
     showgrid="false"
     id="namedview5744"
     inkscape:window-height="1056"
     inkscape:window-width="1920"
     inkscape:pageshadow="2"
     inkscape:pageopacity="0"
     guidetolerance="10"
     gridtolerance="10"
     objecttolerance="10"
     borderopacity="1"
     bordercolor="#666666"
     pagecolor="#ffffff" />
  <title
     id="title6700">MATTER Lab logogram</title>
  <metadata
     id="metadata5748">
    <rdf:RDF>
      <cc:Work
         rdf:about="">
        <dc:format>image/svg+xml</dc:format>
        <dc:type
           rdf:resource="http://purl.org/dc/dcmitype/StillImage" />
        <dc:title>MATTER Lab logogram</dc:title>
        <cc:license
           rdf:resource="http://creativecommons.org/licenses/by-sa/3.0/" />
        <dc:date>2018</dc:date>
        <dc:creator>
          <cc:Agent>
            <dc:title>Arno Klein</dc:title>
          </cc:Agent>
        </dc:creator>
      </cc:Work>
      <cc:License
         rdf:about="http://creativecommons.org/licenses/by-sa/3.0/">
        <cc:permits
           rdf:resource="http://creativecommons.org/ns#Reproduction" />
        <cc:permits
           rdf:resource="http://creativecommons.org/ns#Distribution" />
        <cc:requires
           rdf:resource="http://creativecommons.org/ns#Notice" />
        <cc:requires
           rdf:resource="http://creativecommons.org/ns#Attribution" />
        <cc:permits
           rdf:resource="http://creativecommons.org/ns#DerivativeWorks" />
        <cc:requires
           rdf:resource="http://creativecommons.org/ns#ShareAlike" />
      </cc:License>
    </rdf:RDF>
  </metadata>
  <defs
     id="defs5746" />
  <g
     id="surface1"
     style="opacity:1">
    <path
       inkscape:connector-curvature="0"
       style="fill:#ffffff;;fill-rule:nonzero;stroke:none;;fill-opacity:0.0"
       d="m 0.199219,0.5 289.000001,0 0,119 -289.000001,0 z m 0,0"
       id="path5668" />
    <path
       inkscape:connector-curvature="0"
       style="fill:#f5dc5e;fill-opacity:1;fill-rule:nonzero;stroke:#e6b34f;stroke-width:5;stroke-linecap:round;stroke-linejoin:round;stroke-miterlimit:10;stroke-opacity:1"
       d="M 74.99219,44.238281 8.82812,77.320312 74.99219,110.40625 Z m 0,0"
       id="path5670" />
    <path
       inkscape:connector-curvature="0"
       style="fill:#006399;fill-opacity:1;fill-rule:nonzero;stroke:none"
       d="m 81.238281,8.375 25.405069,25.239726 -0.38742,52.8509 53.18158,0.108597 26.0664,26.066407 -104.265629,0 z"
       id="path5672"
       sodipodi:nodetypes="ccccccc" />
    <path
       inkscape:connector-curvature="0"
       style="fill:#f5dc5e;fill-opacity:1;fill-rule:nonzero;stroke:#e6b34f;stroke-width:5;stroke-linecap:round;stroke-linejoin:round;stroke-miterlimit:10;stroke-opacity:1"
       d="M 74.99219,11.82812 8.82812,44.914062 74.99219,77.996094 Z m 0,0"
       id="path5676" />
    <path
       inkscape:connector-curvature="0"
       style="fill:#f5dc5e;fill-opacity:1;fill-rule:nonzero;stroke:none"
       d="M 72.539062,48.117188 14.042969,77.363281 72.539062,106.61328 Z m 0,0"
       id="path5678" />
    <path
       inkscape:connector-curvature="0"
       style="fill:#000000;fill-opacity:1;fill-rule:nonzero;stroke:none"
       d="m 254.57812,7.503906 -76.87109,0 0,7 76.87109,0 z m 0,0"
       id="path5680" />
    <path
       inkscape:connector-curvature="0"
       style="fill:#000000;fill-opacity:1;fill-rule:nonzero;stroke:none"
       d="m 205.61719,7.503906 7,0 0,49.050782 -7,0 z m 0,0"
       id="path5682" />
    <path
       inkscape:connector-curvature="0"
       style="fill:#000000;fill-opacity:1;fill-rule:nonzero;stroke:none"
       d="m 219.59766,7.503906 7,0 0,49.050782 -7,0 z m 0,0"
       id="path5684" />
    <path
       inkscape:connector-curvature="0"
       style="fill:#000000;fill-opacity:1;fill-rule:nonzero;stroke:none"
       d="m 177.625,21.226562 21.00781,0 0,7 -21.00781,0 z m 0,0"
       id="path5686" />
    <path
       inkscape:connector-curvature="0"
       style="fill:#000000;fill-opacity:1;fill-rule:nonzero;stroke:none"
       d="m 184.58594,21.554688 0,35 -7,0 0,-35 z m 0,0"
       id="path5688" />
    <path
       inkscape:connector-curvature="0"
       style="fill:#000000;fill-opacity:1;fill-rule:nonzero;stroke:none"
       d="m 198.76953,21.613281 0,35 -7,0 0,-35 z m 0,0"
       id="path5690" />
    <path
       inkscape:connector-curvature="0"
       style="fill:#000000;fill-opacity:1;fill-rule:nonzero;stroke:none"
       d="m 233.57812,21.226562 21,0 0,7 -21,0 z m 0,0"
       id="path5692" />
    <path
       inkscape:connector-curvature="0"
       style="fill:#000000;fill-opacity:1;fill-rule:nonzero;stroke:none"
       d="m 240.54297,21.613281 0,35 -7,0 0,-35 z m 0,0"
       id="path5694" />
    <path
       inkscape:connector-curvature="0"
       style="fill:#000000;fill-opacity:1;fill-rule:nonzero;stroke:none"
       d="m 150.41016,7.503906 7,0 0,49.050782 -7,0 z m 0,0"
       id="path5696" />
    <path
       inkscape:connector-curvature="0"
       style="fill:#000000;fill-opacity:1;fill-rule:nonzero;stroke:none"
       d="m 135.91016,7.503906 0,7 35,0 0,-7 z m 0,0"
       id="path5698" />
    <path
       inkscape:connector-curvature="0"
       style="fill:#000000;fill-opacity:1;fill-rule:nonzero;stroke:none"
       d="m 163.91016,7.503906 7,0 0,49.050782 -7,0 z m 0,0"
       id="path5700" />
    <path
       inkscape:connector-curvature="0"
       style="fill:#000000;fill-opacity:1;fill-rule:nonzero;stroke:none"
       d="m 135.91016,7.503906 7,0 0,49.050782 -7,0 z m 0,0"
       id="path5702" />
    <path
       inkscape:connector-curvature="0"
       style="fill:#000000;fill-opacity:1;fill-rule:nonzero;stroke:none"
       d="m 261.60547,7.617188 7,0 0,49 -7,0 z m 0,0"
       id="path5704" />
    <path
       inkscape:connector-curvature="0"
       style="fill:#000000;fill-opacity:1;fill-rule:nonzero;stroke:none"
       d="m 261.60547,7.503906 21,0 0,7 -21,0 z m 0,0"
       id="path5706" />
    <path
       inkscape:connector-curvature="0"
       style="fill:#000000;fill-opacity:1;fill-rule:nonzero;stroke:none"
       d="m 275.63672,7.617188 7,0 0,21.077738 -7,0 z m 0,0"
       id="path5708" />
    <path
       inkscape:connector-curvature="0"
       style="fill:#000000;fill-opacity:1;fill-rule:nonzero;stroke:none"
       d="m 261.63672,28.617188 21,0 -3.00373,3.650186 3.00373,3.349814 -21,0 z"
       id="path5710"
       sodipodi:nodetypes="cccccc" />
    <path
       inkscape:connector-curvature="0"
       style="fill:#ffffff;;fill-rule:nonzero;stroke:none;;fill-opacity:0.0"
       d="m 283.75391,26.824219 -0.0781,10.410156 -5.16406,-5.167969 z m 0,0"
       id="path5712" />
    <path
       inkscape:connector-curvature="0"
       style="fill:#000000;fill-opacity:1;fill-rule:nonzero;stroke:none"
       d="m 177.75781,35.226562 21.01172,0 0,7 -21.01172,0 z m 0,0"
       id="path5714" />
    <path
       inkscape:connector-curvature="0"
       style="fill:#000000;fill-opacity:1;fill-rule:nonzero;stroke:none"
       d="m 233.54297,35.40625 21.00781,0 0,7 -21.00781,0 z m 0,0"
       id="path5716" />
    <path
       inkscape:connector-curvature="0"
       style="fill:#000000;fill-opacity:1;fill-rule:nonzero;stroke:none"
       d="m 233.60547,49.582031 21,0 0,7 -21,0 z m 0,0"
       id="path5718" />
    <path
       inkscape:connector-curvature="0"
       style="fill:#006399;fill-opacity:1;fill-rule:nonzero;stroke:none"
       d="m 219.59766,112.57813 7,0 0,-49.050786 -7,0 z m 0,0"
       id="path5720" />
    <path
       inkscape:connector-curvature="0"
       style="fill:#006399;fill-opacity:1;fill-rule:nonzero;stroke:none"
       d="m 261.60547,112.51617 7,0 0,-48.875545 -7,0 z m 0,0"
       id="path5722" />
    <path
       inkscape:connector-curvature="0"
       style="fill:#006399;fill-opacity:1;fill-rule:nonzero;stroke:none"
       d="m 261.60547,70.527344 21,0 0,-7 -21,0 z m 0,0"
       id="path5724" />
    <path
       inkscape:connector-curvature="0"
       style="fill:#006399;fill-opacity:1;fill-rule:nonzero;stroke:none"
       d="m 275.63672,84.686863 7,0 0,-21.046238 -7,0 z m 0,0"
       id="path5726" />
    <path
       inkscape:connector-curvature="0"
       style="fill:#006399;fill-opacity:1;fill-rule:nonzero;stroke:none"
       d="m 261.63672,91.640625 21,0 -3.36912,-3.599092 3.36912,-3.400908 -21,0 z"
       id="path5728"
       sodipodi:nodetypes="cccccc" />
    <path
       inkscape:connector-curvature="0"
       style="fill:#006399;fill-opacity:1;fill-rule:nonzero;stroke:none"
       d="m 261.63672,112.57813 21,0 0,-7 -21,0 z m 0,0"
       id="path5730" />
    <path
       inkscape:connector-curvature="0"
       style="fill:#ffffff;;fill-rule:nonzero;stroke:none;;fill-opacity:0.0"
       d="m 283.75391,82.847656 -0.0781,10.40625 -5.16406,-5.164062 z m 0,0"
       id="path5732" />
    <path
       inkscape:connector-curvature="0"
       style="fill:#006399;fill-opacity:1;fill-rule:nonzero;stroke:none"
       d="m 233.49219,70.429688 21.01172,0 0,-7 -21.01172,0 z m 0,0"
       id="path5734" />
    <path
       inkscape:connector-curvature="0"
       style="fill:#006399;fill-opacity:1;fill-rule:nonzero;stroke:none"
       d="m 233.45703,63.753906 0,35 7,0 0,-35 z m 0,0"
       id="path5736" />
    <path
       inkscape:connector-curvature="0"
       style="fill:#006399;fill-opacity:1;fill-rule:nonzero;stroke:none"
       d="m 247.63672,63.8125 0,35 7,0 0,-35 z m 0,0"
       id="path5738" />
    <path
       inkscape:connector-curvature="0"
       style="fill:#006399;fill-opacity:1;fill-rule:nonzero;stroke:none"
       d="m 233.62891,84.429688 21.00781,0 0,-7 -21.00781,0 z m 0,0"
       id="path5740" />
    <path
       inkscape:connector-curvature="0"
       style="fill:#006399;fill-opacity:1;fill-rule:nonzero;stroke:none"
       d="m 254.69531,112.62891 -35.09765,0 0,-7 35.09765,0 z m 0,0"
       id="path5742" />
    <path
       inkscape:connector-curvature="0"
       style="opacity:1;fill:#006399;fill-opacity:1;fill-rule:nonzero;stroke:none"
       d="m 275.63927,112.43214 7,0 0,-20.809633 -7,0 z m 0,0"
       id="path5726-5" />
  </g>
  <path
     inkscape:connector-curvature="0"
     style="opacity:1;fill:#000000;fill-opacity:1;fill-rule:nonzero;stroke:none"
     d="m 275.65501,35.587633 7,0 0,21.388825 -7,0 z m 0,0"
     id="path5708-7" />
</svg>
