<?xml version="1.0" encoding="UTF-8"?>
<svg xmlns="http://www.w3.org/2000/svg" xmlns:xlink="http://www.w3.org/1999/xlink" width="290pt" height="120pt" viewBox="0 0 290 120" version="1.1">
<g id="surface1">
<path style=" stroke:none;fill-rule:nonzero;fill:rgb(100%,100%,100%);fill-opacity:1;" d="M 0.199219 0.5 L 289.199219 0.5 L 289.199219 119.5 L 0.199219 119.5 Z M 0.199219 0.5 "/>
<path style="fill-rule:nonzero;fill:rgb(96.862793%,86.66687%,37.254333%);fill-opacity:1;stroke-width:5;stroke-linecap:round;stroke-linejoin:round;stroke:rgb(90.98053%,70.980835%,31.37207%);stroke-opacity:1;stroke-miterlimit:10;" d="M 237.992188 -86.761719 L 171.828125 -53.679688 L 237.992188 -20.59375 Z M 237.992188 -86.761719 " transform="matrix(1,0,0,1,-163,131)"/>
<path style=" stroke:none;fill-rule:nonzero;fill:rgb(0%,39.215088%,60.784912%);fill-opacity:1;" d="M 81.238281 8.375 L 185.503906 112.640625 L 81.238281 112.640625 Z M 81.238281 8.375 "/>
<path style=" stroke:none;fill-rule:nonzero;fill:rgb(100%,100%,100%);fill-opacity:1;" d="M 106.578125 27.792969 L 165.074219 86.285156 L 106.578125 86.285156 Z M 106.578125 27.792969 "/>
<path style="fill-rule:nonzero;fill:rgb(96.862793%,86.66687%,37.254333%);fill-opacity:1;stroke-width:5;stroke-linecap:round;stroke-linejoin:round;stroke:rgb(90.98053%,70.980835%,31.37207%);stroke-opacity:1;stroke-miterlimit:10;" d="M 237.992188 -119.171875 L 171.828125 -86.085938 L 237.992188 -53.003906 Z M 237.992188 -119.171875 " transform="matrix(1,0,0,1,-163,131)"/>
<path style=" stroke:none;fill-rule:nonzero;fill:rgb(96.862793%,86.66687%,37.254333%);fill-opacity:1;" d="M 72.539062 48.117188 L 14.042969 77.363281 L 72.539062 106.613281 Z M 72.539062 48.117188 "/>
<path style=" stroke:none;fill-rule:nonzero;fill:rgb(0%,0%,0%);fill-opacity:1;" d="M 254.578125 7.503906 L 177.707031 7.503906 L 177.707031 14.503906 L 254.578125 14.503906 Z M 254.578125 7.503906 "/>
<path style=" stroke:none;fill-rule:nonzero;fill:rgb(0%,0%,0%);fill-opacity:1;" d="M 205.617188 7.503906 L 212.617188 7.503906 L 212.617188 56.554688 L 205.617188 56.554688 Z M 205.617188 7.503906 "/>
<path style=" stroke:none;fill-rule:nonzero;fill:rgb(0%,0%,0%);fill-opacity:1;" d="M 219.597656 7.503906 L 226.597656 7.503906 L 226.597656 56.554688 L 219.597656 56.554688 Z M 219.597656 7.503906 "/>
<path style=" stroke:none;fill-rule:nonzero;fill:rgb(0%,0%,0%);fill-opacity:1;" d="M 177.625 21.226562 L 198.632812 21.226562 L 198.632812 28.226562 L 177.625 28.226562 Z M 177.625 21.226562 "/>
<path style=" stroke:none;fill-rule:nonzero;fill:rgb(0%,0%,0%);fill-opacity:1;" d="M 184.585938 21.554688 L 184.585938 56.554688 L 177.585938 56.554688 L 177.585938 21.554688 Z M 184.585938 21.554688 "/>
<path style=" stroke:none;fill-rule:nonzero;fill:rgb(0%,0%,0%);fill-opacity:1;" d="M 198.769531 21.613281 L 198.769531 56.613281 L 191.769531 56.613281 L 191.769531 21.613281 Z M 198.769531 21.613281 "/>
<path style=" stroke:none;fill-rule:nonzero;fill:rgb(0%,0%,0%);fill-opacity:1;" d="M 233.578125 21.226562 L 254.578125 21.226562 L 254.578125 28.226562 L 233.578125 28.226562 Z M 233.578125 21.226562 "/>
<path style=" stroke:none;fill-rule:nonzero;fill:rgb(0%,0%,0%);fill-opacity:1;" d="M 240.542969 21.613281 L 240.542969 56.613281 L 233.542969 56.613281 L 233.542969 21.613281 Z M 240.542969 21.613281 "/>
<path style=" stroke:none;fill-rule:nonzero;fill:rgb(0%,0%,0%);fill-opacity:1;" d="M 150.410156 7.503906 L 157.410156 7.503906 L 157.410156 56.554688 L 150.410156 56.554688 Z M 150.410156 7.503906 "/>
<path style=" stroke:none;fill-rule:nonzero;fill:rgb(0%,0%,0%);fill-opacity:1;" d="M 135.910156 7.503906 L 135.910156 14.503906 L 170.910156 14.503906 L 170.910156 7.503906 Z M 135.910156 7.503906 "/>
<path style=" stroke:none;fill-rule:nonzero;fill:rgb(0%,0%,0%);fill-opacity:1;" d="M 163.910156 7.503906 L 170.910156 7.503906 L 170.910156 56.554688 L 163.910156 56.554688 Z M 163.910156 7.503906 "/>
<path style=" stroke:none;fill-rule:nonzero;fill:rgb(0%,0%,0%);fill-opacity:1;" d="M 135.910156 7.503906 L 142.910156 7.503906 L 142.910156 56.554688 L 135.910156 56.554688 Z M 135.910156 7.503906 "/>
<path style=" stroke:none;fill-rule:nonzero;fill:rgb(0%,0%,0%);fill-opacity:1;" d="M 261.605469 7.617188 L 268.605469 7.617188 L 268.605469 56.617188 L 261.605469 56.617188 Z M 261.605469 7.617188 "/>
<path style=" stroke:none;fill-rule:nonzero;fill:rgb(0%,0%,0%);fill-opacity:1;" d="M 261.605469 7.503906 L 282.605469 7.503906 L 282.605469 14.503906 L 261.605469 14.503906 Z M 261.605469 7.503906 "/>
<path style=" stroke:none;fill-rule:nonzero;fill:rgb(0%,0%,0%);fill-opacity:1;" d="M 275.636719 7.617188 L 282.636719 7.617188 L 282.636719 56.617188 L 275.636719 56.617188 Z M 275.636719 7.617188 "/>
<path style=" stroke:none;fill-rule:nonzero;fill:rgb(0%,0%,0%);fill-opacity:1;" d="M 261.636719 28.617188 L 282.636719 28.617188 L 282.636719 35.617188 L 261.636719 35.617188 Z M 261.636719 28.617188 "/>
<path style=" stroke:none;fill-rule:nonzero;fill:rgb(100%,100%,100%);fill-opacity:1;" d="M 283.753906 26.824219 L 283.675781 37.234375 L 278.511719 32.066406 Z M 283.753906 26.824219 "/>
<path style=" stroke:none;fill-rule:nonzero;fill:rgb(0%,0%,0%);fill-opacity:1;" d="M 177.757812 35.226562 L 198.769531 35.226562 L 198.769531 42.226562 L 177.757812 42.226562 Z M 177.757812 35.226562 "/>
<path style=" stroke:none;fill-rule:nonzero;fill:rgb(0%,0%,0%);fill-opacity:1;" d="M 233.542969 35.40625 L 254.550781 35.40625 L 254.550781 42.40625 L 233.542969 42.40625 Z M 233.542969 35.40625 "/>
<path style=" stroke:none;fill-rule:nonzero;fill:rgb(0%,0%,0%);fill-opacity:1;" d="M 233.605469 49.582031 L 254.605469 49.582031 L 254.605469 56.582031 L 233.605469 56.582031 Z M 233.605469 49.582031 "/>
<path style=" stroke:none;fill-rule:nonzero;fill:rgb(0%,39.215088%,60.784912%);fill-opacity:1;" d="M 219.597656 112.578125 L 226.597656 112.578125 L 226.597656 63.527344 L 219.597656 63.527344 Z M 219.597656 112.578125 "/>
<path style=" stroke:none;fill-rule:nonzero;fill:rgb(0%,39.215088%,60.784912%);fill-opacity:1;" d="M 261.605469 112.640625 L 268.605469 112.640625 L 268.605469 63.640625 L 261.605469 63.640625 Z M 261.605469 112.640625 "/>
<path style=" stroke:none;fill-rule:nonzero;fill:rgb(0%,39.215088%,60.784912%);fill-opacity:1;" d="M 261.605469 70.527344 L 282.605469 70.527344 L 282.605469 63.527344 L 261.605469 63.527344 Z M 261.605469 70.527344 "/>
<path style=" stroke:none;fill-rule:nonzero;fill:rgb(0%,39.215088%,60.784912%);fill-opacity:1;" d="M 275.636719 112.640625 L 282.636719 112.640625 L 282.636719 63.640625 L 275.636719 63.640625 Z M 275.636719 112.640625 "/>
<path style=" stroke:none;fill-rule:nonzero;fill:rgb(0%,39.215088%,60.784912%);fill-opacity:1;" d="M 261.636719 91.640625 L 282.636719 91.640625 L 282.636719 84.640625 L 261.636719 84.640625 Z M 261.636719 91.640625 "/>
<path style=" stroke:none;fill-rule:nonzero;fill:rgb(0%,39.215088%,60.784912%);fill-opacity:1;" d="M 261.636719 112.578125 L 282.636719 112.578125 L 282.636719 105.578125 L 261.636719 105.578125 Z M 261.636719 112.578125 "/>
<path style=" stroke:none;fill-rule:nonzero;fill:rgb(100%,100%,100%);fill-opacity:1;" d="M 283.753906 82.847656 L 283.675781 93.253906 L 278.511719 88.089844 Z M 283.753906 82.847656 "/>
<path style=" stroke:none;fill-rule:nonzero;fill:rgb(0%,39.215088%,60.784912%);fill-opacity:1;" d="M 233.492188 70.429688 L 254.503906 70.429688 L 254.503906 63.429688 L 233.492188 63.429688 Z M 233.492188 70.429688 "/>
<path style=" stroke:none;fill-rule:nonzero;fill:rgb(0%,39.215088%,60.784912%);fill-opacity:1;" d="M 233.457031 63.753906 L 233.457031 98.753906 L 240.457031 98.753906 L 240.457031 63.753906 Z M 233.457031 63.753906 "/>
<path style=" stroke:none;fill-rule:nonzero;fill:rgb(0%,39.215088%,60.784912%);fill-opacity:1;" d="M 247.636719 63.8125 L 247.636719 98.8125 L 254.636719 98.8125 L 254.636719 63.8125 Z M 247.636719 63.8125 "/>
<path style=" stroke:none;fill-rule:nonzero;fill:rgb(0%,39.215088%,60.784912%);fill-opacity:1;" d="M 233.628906 84.429688 L 254.636719 84.429688 L 254.636719 77.429688 L 233.628906 77.429688 Z M 233.628906 84.429688 "/>
<path style=" stroke:none;fill-rule:nonzero;fill:rgb(0%,39.215088%,60.784912%);fill-opacity:1;" d="M 254.695312 112.628906 L 219.597656 112.628906 L 219.597656 105.628906 L 254.695312 105.628906 Z M 254.695312 112.628906 "/>
</g>
</svg>
