<?xml version="1.0" encoding="UTF-8"?>
<svg xmlns="http://www.w3.org/2000/svg" xmlns:xlink="http://www.w3.org/1999/xlink" width="224pt" height="50pt" viewBox="0 0 224 50" version="1.1">
<g id="surface1">
<path style=" stroke:none;fill-rule:nonzero;fill:rgb(0%,0%,0%);fill-opacity:1;" d="M 118.96875 0.238281 L 42.097656 0.238281 L 42.097656 7.238281 L 118.96875 7.238281 Z M 118.96875 0.238281 "/>
<path style=" stroke:none;fill-rule:nonzero;fill:rgb(0%,0%,0%);fill-opacity:1;" d="M 70.007812 0.238281 L 77.007812 0.238281 L 77.007812 49.289062 L 70.007812 49.289062 Z M 70.007812 0.238281 "/>
<path style=" stroke:none;fill-rule:nonzero;fill:rgb(0%,0%,0%);fill-opacity:1;" d="M 83.988281 0.238281 L 90.988281 0.238281 L 90.988281 49.289062 L 83.988281 49.289062 Z M 83.988281 0.238281 "/>
<path style=" stroke:none;fill-rule:nonzero;fill:rgb(0%,0%,0%);fill-opacity:1;" d="M 42.015625 13.960938 L 63.027344 13.960938 L 63.027344 20.960938 L 42.015625 20.960938 Z M 42.015625 13.960938 "/>
<path style=" stroke:none;fill-rule:nonzero;fill:rgb(0%,0%,0%);fill-opacity:1;" d="M 48.980469 14.289062 L 48.980469 49.289062 L 41.980469 49.289062 L 41.980469 14.289062 Z M 48.980469 14.289062 "/>
<path style=" stroke:none;fill-rule:nonzero;fill:rgb(0%,0%,0%);fill-opacity:1;" d="M 63.160156 14.347656 L 63.160156 49.347656 L 56.160156 49.347656 L 56.160156 14.347656 Z M 63.160156 14.347656 "/>
<path style=" stroke:none;fill-rule:nonzero;fill:rgb(0%,0%,0%);fill-opacity:1;" d="M 97.96875 13.960938 L 118.96875 13.960938 L 118.96875 20.960938 L 97.96875 20.960938 Z M 97.96875 13.960938 "/>
<path style=" stroke:none;fill-rule:nonzero;fill:rgb(0%,0%,0%);fill-opacity:1;" d="M 104.933594 14.347656 L 104.933594 49.347656 L 97.933594 49.347656 L 97.933594 14.347656 Z M 104.933594 14.347656 "/>
<path style=" stroke:none;fill-rule:nonzero;fill:rgb(0%,0%,0%);fill-opacity:1;" d="M 14.800781 0.238281 L 21.800781 0.238281 L 21.800781 49.289062 L 14.800781 49.289062 Z M 14.800781 0.238281 "/>
<path style=" stroke:none;fill-rule:nonzero;fill:rgb(0%,0%,0%);fill-opacity:1;" d="M 0.300781 0.238281 L 0.300781 7.238281 L 35.300781 7.238281 L 35.300781 0.238281 Z M 0.300781 0.238281 "/>
<path style=" stroke:none;fill-rule:nonzero;fill:rgb(0%,0%,0%);fill-opacity:1;" d="M 28.300781 0.238281 L 35.300781 0.238281 L 35.300781 49.289062 L 28.300781 49.289062 Z M 28.300781 0.238281 "/>
<path style=" stroke:none;fill-rule:nonzero;fill:rgb(0%,0%,0%);fill-opacity:1;" d="M 0.300781 0.238281 L 7.300781 0.238281 L 7.300781 49.289062 L 0.300781 49.289062 Z M 0.300781 0.238281 "/>
<path style=" stroke:none;fill-rule:nonzero;fill:rgb(0%,0%,0%);fill-opacity:1;" d="M 126 0.351562 L 133 0.351562 L 133 49.351562 L 126 49.351562 Z M 126 0.351562 "/>
<path style=" stroke:none;fill-rule:nonzero;fill:rgb(0%,0%,0%);fill-opacity:1;" d="M 126 0.238281 L 147 0.238281 L 147 7.238281 L 126 7.238281 Z M 126 0.238281 "/>
<path style=" stroke:none;fill-rule:nonzero;fill:rgb(0%,0%,0%);fill-opacity:1;" d="M 140.027344 0.351562 L 147.027344 0.351562 L 147.027344 49.351562 L 140.027344 49.351562 Z M 140.027344 0.351562 "/>
<path style=" stroke:none;fill-rule:nonzero;fill:rgb(0%,0%,0%);fill-opacity:1;" d="M 126.027344 21.351562 L 147.027344 21.351562 L 147.027344 28.351562 L 126.027344 28.351562 Z M 126.027344 21.351562 "/>
<path style=" stroke:none;fill-rule:nonzero;fill:rgb(100%,100%,100%);fill-opacity:1;" d="M 148.144531 19.558594 L 148.066406 29.96875 L 142.902344 24.800781 Z M 148.144531 19.558594 "/>
<path style=" stroke:none;fill-rule:nonzero;fill:rgb(0%,0%,0%);fill-opacity:1;" d="M 42.148438 27.960938 L 63.160156 27.960938 L 63.160156 34.960938 L 42.148438 34.960938 Z M 42.148438 27.960938 "/>
<path style=" stroke:none;fill-rule:nonzero;fill:rgb(0%,0%,0%);fill-opacity:1;" d="M 97.933594 28.140625 L 118.945312 28.140625 L 118.945312 35.140625 L 97.933594 35.140625 Z M 97.933594 28.140625 "/>
<path style=" stroke:none;fill-rule:nonzero;fill:rgb(0%,0%,0%);fill-opacity:1;" d="M 98 42.316406 L 119 42.316406 L 119 49.316406 L 98 49.316406 Z M 98 42.316406 "/>
<path style=" stroke:none;fill-rule:nonzero;fill:rgb(0%,39.215088%,60.784912%);fill-opacity:1;" d="M 154.054688 49.222656 L 161.054688 49.222656 L 161.054688 0.171875 L 154.054688 0.171875 Z M 154.054688 49.222656 "/>
<path style=" stroke:none;fill-rule:nonzero;fill:rgb(0%,39.215088%,60.784912%);fill-opacity:1;" d="M 196.0625 49.289062 L 203.0625 49.289062 L 203.0625 0.289062 L 196.0625 0.289062 Z M 196.0625 49.289062 "/>
<path style=" stroke:none;fill-rule:nonzero;fill:rgb(0%,39.215088%,60.784912%);fill-opacity:1;" d="M 196.0625 7.171875 L 217.0625 7.171875 L 217.0625 0.171875 L 196.0625 0.171875 Z M 196.0625 7.171875 "/>
<path style=" stroke:none;fill-rule:nonzero;fill:rgb(0%,39.215088%,60.784912%);fill-opacity:1;" d="M 210.09375 49.289062 L 217.09375 49.289062 L 217.09375 0.289062 L 210.09375 0.289062 Z M 210.09375 49.289062 "/>
<path style=" stroke:none;fill-rule:nonzero;fill:rgb(0%,39.215088%,60.784912%);fill-opacity:1;" d="M 196.09375 28.289062 L 217.09375 28.289062 L 217.09375 21.289062 L 196.09375 21.289062 Z M 196.09375 28.289062 "/>
<path style=" stroke:none;fill-rule:nonzero;fill:rgb(0%,39.215088%,60.784912%);fill-opacity:1;" d="M 196.09375 49.222656 L 217.09375 49.222656 L 217.09375 42.222656 L 196.09375 42.222656 Z M 196.09375 49.222656 "/>
<path style=" stroke:none;fill-rule:nonzero;fill:rgb(100%,100%,100%);fill-opacity:1;" d="M 218.210938 19.496094 L 218.132812 29.902344 L 212.96875 24.738281 Z M 218.210938 19.496094 "/>
<path style=" stroke:none;fill-rule:nonzero;fill:rgb(0%,39.215088%,60.784912%);fill-opacity:1;" d="M 167.949219 7.074219 L 188.960938 7.074219 L 188.960938 0.0742188 L 167.949219 0.0742188 Z M 167.949219 7.074219 "/>
<path style=" stroke:none;fill-rule:nonzero;fill:rgb(0%,39.215088%,60.784912%);fill-opacity:1;" d="M 167.914062 0.402344 L 167.914062 35.402344 L 174.914062 35.402344 L 174.914062 0.402344 Z M 167.914062 0.402344 "/>
<path style=" stroke:none;fill-rule:nonzero;fill:rgb(0%,39.215088%,60.784912%);fill-opacity:1;" d="M 182.09375 0.460938 L 182.09375 35.460938 L 189.09375 35.460938 L 189.09375 0.460938 Z M 182.09375 0.460938 "/>
<path style=" stroke:none;fill-rule:nonzero;fill:rgb(0%,39.215088%,60.784912%);fill-opacity:1;" d="M 168.085938 21.074219 L 189.09375 21.074219 L 189.09375 14.074219 L 168.085938 14.074219 Z M 168.085938 21.074219 "/>
<path style=" stroke:none;fill-rule:nonzero;fill:rgb(0%,39.215088%,60.784912%);fill-opacity:1;" d="M 189.152344 49.273438 L 154.054688 49.273438 L 154.054688 42.273438 L 189.152344 42.273438 Z M 189.152344 49.273438 "/>
</g>
</svg>
