<?xml version="1.0" encoding="UTF-8"?>
<svg xmlns="http://www.w3.org/2000/svg" xmlns:xlink="http://www.w3.org/1999/xlink" width="130pt" height="78pt" viewBox="0 0 130 78" version="1.1">
<g id="surface1">
<path style=" stroke:none;fill-rule:nonzero;fill:rgb(0%,0%,0%);fill-opacity:1;" d="M 98.078125 0.410156 L 39.394531 0.410156 L 39.394531 10.410156 L 98.078125 10.410156 Z M 98.078125 0.410156 "/>
<path style=" stroke:none;fill-rule:nonzero;fill:rgb(0%,0%,0%);fill-opacity:1;" d="M 57.203125 0.410156 L 67.203125 0.410156 L 67.203125 37.484375 L 57.203125 37.484375 Z M 57.203125 0.410156 "/>
<path style=" stroke:none;fill-rule:nonzero;fill:rgb(0%,0%,0%);fill-opacity:1;" d="M 70.140625 0.410156 L 80.140625 0.410156 L 80.140625 37.484375 L 70.140625 37.484375 Z M 70.140625 0.410156 "/>
<path style=" stroke:none;fill-rule:nonzero;fill:rgb(0%,0%,0%);fill-opacity:1;" d="M 39.261719 13.480469 L 54.261719 13.480469 L 54.261719 19.480469 L 39.261719 19.480469 Z M 39.261719 13.480469 "/>
<path style=" stroke:none;fill-rule:nonzero;fill:rgb(0%,0%,0%);fill-opacity:1;" d="M 39.261719 22.375 L 54.261719 22.375 L 54.261719 28.375 L 39.261719 28.375 Z M 39.261719 22.375 "/>
<path style=" stroke:none;fill-rule:nonzero;fill:rgb(0%,0%,0%);fill-opacity:1;" d="M 45.261719 13.574219 L 45.261719 37.484375 L 39.261719 37.484375 L 39.261719 13.574219 Z M 45.261719 13.574219 "/>
<path style=" stroke:none;fill-rule:nonzero;fill:rgb(0%,0%,0%);fill-opacity:1;" d="M 54.261719 17.484375 L 54.261719 37.484375 L 48.261719 37.484375 L 48.261719 17.484375 Z M 54.261719 17.484375 "/>
<path style=" stroke:none;fill-rule:nonzero;fill:rgb(0%,0%,0%);fill-opacity:1;" d="M 83.078125 13.402344 L 98.078125 13.402344 L 98.078125 19.402344 L 83.078125 19.402344 Z M 83.078125 13.402344 "/>
<path style=" stroke:none;fill-rule:nonzero;fill:rgb(0%,0%,0%);fill-opacity:1;" d="M 83.078125 31.484375 L 98.078125 31.484375 L 98.078125 37.484375 L 83.078125 37.484375 Z M 83.078125 31.484375 "/>
<path style=" stroke:none;fill-rule:nonzero;fill:rgb(0%,0%,0%);fill-opacity:1;" d="M 83.078125 22.480469 L 98.078125 22.480469 L 98.078125 28.480469 L 83.078125 28.480469 Z M 83.078125 22.480469 "/>
<path style=" stroke:none;fill-rule:nonzero;fill:rgb(0%,0%,0%);fill-opacity:1;" d="M 89.078125 13.664062 L 89.078125 37.484375 L 83.078125 37.484375 L 83.078125 13.664062 Z M 89.078125 13.664062 "/>
<path style=" stroke:none;fill-rule:nonzero;fill:rgb(100%,100%,100%);fill-opacity:1;" d="M 112.785156 20.65625 L 112.171875 20.65625 L 112.171875 7.195312 L 112.785156 7.195312 Z M 112.785156 20.65625 "/>
<path style=" stroke:none;fill-rule:nonzero;fill:rgb(0%,0%,0%);fill-opacity:1;" d="M 101.152344 0.410156 L 111.152344 0.410156 L 111.152344 37.484375 L 101.152344 37.484375 Z M 101.152344 0.410156 "/>
<path style=" stroke:none;fill-rule:nonzero;fill:rgb(0%,0%,0%);fill-opacity:1;" d="M 114.222656 0.410156 L 124.222656 0.410156 L 124.222656 37.484375 L 114.222656 37.484375 Z M 114.222656 0.410156 "/>
<path style=" stroke:none;fill-rule:nonzero;fill:rgb(0%,0%,0%);fill-opacity:1;" d="M 101.222656 0.410156 L 101.222656 10.410156 L 124.222656 10.410156 L 124.222656 0.410156 Z M 101.222656 0.410156 "/>
<path style=" stroke:none;fill-rule:nonzero;fill:rgb(100%,100%,100%);fill-opacity:1;" d="M 124.679688 14.089844 L 124.601562 24.496094 L 119.4375 19.332031 Z M 124.679688 14.089844 "/>
<path style=" stroke:none;fill-rule:nonzero;fill:rgb(0%,0%,0%);fill-opacity:1;" d="M 101.222656 13.820312 L 101.222656 23.820312 L 119.507812 23.820312 L 119.507812 13.820312 Z M 101.222656 13.820312 "/>
<path style=" stroke:none;fill-rule:nonzero;fill:rgb(0%,0%,0%);fill-opacity:1;" d="M 13.328125 0.410156 L 23.328125 0.410156 L 23.328125 37.484375 L 13.328125 37.484375 Z M 13.328125 0.410156 "/>
<path style=" stroke:none;fill-rule:nonzero;fill:rgb(0%,0%,0%);fill-opacity:1;" d="M 0.335938 0.410156 L 0.335938 10.410156 L 36.335938 10.410156 L 36.335938 0.410156 Z M 0.335938 0.410156 "/>
<path style=" stroke:none;fill-rule:nonzero;fill:rgb(0%,0%,0%);fill-opacity:1;" d="M 26.324219 0.410156 L 36.324219 0.410156 L 36.324219 37.484375 L 26.324219 37.484375 Z M 26.324219 0.410156 "/>
<path style=" stroke:none;fill-rule:nonzero;fill:rgb(0%,0%,0%);fill-opacity:1;" d="M 0.335938 0.410156 L 10.335938 0.410156 L 10.335938 37.484375 L 0.335938 37.484375 Z M 0.335938 0.410156 "/>
<path style=" stroke:none;fill-rule:nonzero;fill:rgb(0%,39.215088%,60.784912%);fill-opacity:1;" d="M 70.140625 77.628906 L 80.140625 77.628906 L 80.140625 40.554688 L 70.140625 40.554688 Z M 70.140625 77.628906 "/>
<path style=" stroke:none;fill-rule:nonzero;fill:rgb(0%,39.215088%,60.784912%);fill-opacity:1;" d="M 101.152344 77.628906 L 111.152344 77.628906 L 111.152344 40.554688 L 101.152344 40.554688 Z M 101.152344 77.628906 "/>
<path style=" stroke:none;fill-rule:nonzero;fill:rgb(0%,39.215088%,60.784912%);fill-opacity:1;" d="M 114.222656 77.628906 L 124.222656 77.628906 L 124.222656 40.554688 L 114.222656 40.554688 Z M 114.222656 77.628906 "/>
<path style=" stroke:none;fill-rule:nonzero;fill:rgb(0%,39.215088%,60.784912%);fill-opacity:1;" d="M 101.222656 77.628906 L 101.222656 67.628906 L 124.222656 67.628906 L 124.222656 77.628906 Z M 101.222656 77.628906 "/>
<path style=" stroke:none;fill-rule:nonzero;fill:rgb(100%,100%,100%);fill-opacity:1;" d="M 124.679688 63.949219 L 124.601562 53.542969 L 119.4375 58.707031 Z M 124.679688 63.949219 "/>
<path style=" stroke:none;fill-rule:nonzero;fill:rgb(0%,39.215088%,60.784912%);fill-opacity:1;" d="M 101.152344 64.09375 L 101.152344 54.09375 L 119.4375 54.09375 L 119.4375 64.09375 Z M 101.152344 64.09375 "/>
<path style=" stroke:none;fill-rule:nonzero;fill:rgb(0%,39.215088%,60.784912%);fill-opacity:1;" d="M 83.078125 40.554688 L 98.078125 40.554688 L 98.078125 46.554688 L 83.078125 46.554688 Z M 83.078125 40.554688 "/>
<path style=" stroke:none;fill-rule:nonzero;fill:rgb(0%,39.215088%,60.784912%);fill-opacity:1;" d="M 83.078125 49.449219 L 98.078125 49.449219 L 98.078125 55.449219 L 83.078125 55.449219 Z M 83.078125 49.449219 "/>
<path style=" stroke:none;fill-rule:nonzero;fill:rgb(0%,39.215088%,60.784912%);fill-opacity:1;" d="M 89.078125 40.648438 L 89.078125 64.554688 L 83.078125 64.554688 L 83.078125 40.648438 Z M 89.078125 40.648438 "/>
<path style=" stroke:none;fill-rule:nonzero;fill:rgb(0%,39.215088%,60.784912%);fill-opacity:1;" d="M 98.078125 44.554688 L 98.078125 64.554688 L 92.078125 64.554688 L 92.078125 44.554688 Z M 98.078125 44.554688 "/>
<path style=" stroke:none;fill-rule:nonzero;fill:rgb(0%,39.215088%,60.784912%);fill-opacity:1;" d="M 101.152344 50.554688 L 101.152344 40.554688 L 124.152344 40.554688 L 124.152344 50.554688 Z M 101.152344 50.554688 "/>
<path style=" stroke:none;fill-rule:nonzero;fill:rgb(0%,39.215088%,60.784912%);fill-opacity:1;" d="M 98.078125 77.628906 L 70.292969 77.628906 L 70.292969 67.628906 L 98.078125 67.628906 Z M 98.078125 77.628906 "/>
</g>
</svg>
