<?xml version="1.0" encoding="UTF-8"?>
<svg xmlns="http://www.w3.org/2000/svg" xmlns:xlink="http://www.w3.org/1999/xlink" width="130pt" height="78pt" viewBox="0 0 130 78" version="1.1">
<g id="surface1">
<path style=" stroke:none;fill-rule:nonzero;fill:rgb(100%,100%,100%);fill-opacity:1;" d="M 97.804688 0.28125 L 39.121094 0.28125 L 39.121094 10.28125 L 97.804688 10.28125 Z M 97.804688 0.28125 "/>
<path style=" stroke:none;fill-rule:nonzero;fill:rgb(100%,100%,100%);fill-opacity:1;" d="M 56.925781 0.28125 L 66.925781 0.28125 L 66.925781 37.355469 L 56.925781 37.355469 Z M 56.925781 0.28125 "/>
<path style=" stroke:none;fill-rule:nonzero;fill:rgb(100%,100%,100%);fill-opacity:1;" d="M 69.867188 0.28125 L 79.867188 0.28125 L 79.867188 37.355469 L 69.867188 37.355469 Z M 69.867188 0.28125 "/>
<path style=" stroke:none;fill-rule:nonzero;fill:rgb(100%,100%,100%);fill-opacity:1;" d="M 38.988281 13.355469 L 53.988281 13.355469 L 53.988281 19.355469 L 38.988281 19.355469 Z M 38.988281 13.355469 "/>
<path style=" stroke:none;fill-rule:nonzero;fill:rgb(100%,100%,100%);fill-opacity:1;" d="M 38.988281 22.246094 L 53.988281 22.246094 L 53.988281 28.246094 L 38.988281 28.246094 Z M 38.988281 22.246094 "/>
<path style=" stroke:none;fill-rule:nonzero;fill:rgb(100%,100%,100%);fill-opacity:1;" d="M 44.988281 13.445312 L 44.988281 37.355469 L 38.988281 37.355469 L 38.988281 13.445312 Z M 44.988281 13.445312 "/>
<path style=" stroke:none;fill-rule:nonzero;fill:rgb(100%,100%,100%);fill-opacity:1;" d="M 53.988281 17.355469 L 53.988281 37.355469 L 47.988281 37.355469 L 47.988281 17.355469 Z M 53.988281 17.355469 "/>
<path style=" stroke:none;fill-rule:nonzero;fill:rgb(100%,100%,100%);fill-opacity:1;" d="M 82.804688 13.273438 L 97.804688 13.273438 L 97.804688 19.273438 L 82.804688 19.273438 Z M 82.804688 13.273438 "/>
<path style=" stroke:none;fill-rule:nonzero;fill:rgb(100%,100%,100%);fill-opacity:1;" d="M 82.804688 31.355469 L 97.804688 31.355469 L 97.804688 37.355469 L 82.804688 37.355469 Z M 82.804688 31.355469 "/>
<path style=" stroke:none;fill-rule:nonzero;fill:rgb(100%,100%,100%);fill-opacity:1;" d="M 82.804688 22.351562 L 97.804688 22.351562 L 97.804688 28.351562 L 82.804688 28.351562 Z M 82.804688 22.351562 "/>
<path style=" stroke:none;fill-rule:nonzero;fill:rgb(100%,100%,100%);fill-opacity:1;" d="M 88.804688 13.539062 L 88.804688 37.355469 L 82.804688 37.355469 L 82.804688 13.539062 Z M 88.804688 13.539062 "/>
<path style=" stroke:none;fill-rule:nonzero;fill:rgb(100%,100%,100%);fill-opacity:1;" d="M 112.511719 20.527344 L 111.898438 20.527344 L 111.898438 7.066406 L 112.511719 7.066406 Z M 112.511719 20.527344 "/>
<path style=" stroke:none;fill-rule:nonzero;fill:rgb(100%,100%,100%);fill-opacity:1;" d="M 100.875 0.28125 L 110.875 0.28125 L 110.875 37.355469 L 100.875 37.355469 Z M 100.875 0.28125 "/>
<path style=" stroke:none;fill-rule:nonzero;fill:rgb(100%,100%,100%);fill-opacity:1;" d="M 113.949219 0.28125 L 123.949219 0.28125 L 123.949219 37.355469 L 113.949219 37.355469 Z M 113.949219 0.28125 "/>
<path style=" stroke:none;fill-rule:nonzero;fill:rgb(100%,100%,100%);fill-opacity:1;" d="M 100.949219 0.28125 L 100.949219 10.28125 L 123.949219 10.28125 L 123.949219 0.28125 Z M 100.949219 0.28125 "/>
<path style=" stroke:none;fill-rule:nonzero;fill:rgb(0%,39.215088%,60.784912%);fill-opacity:1;" d="M 124.402344 13.960938 L 124.328125 24.367188 L 119.160156 19.203125 Z M 124.402344 13.960938 "/>
<path style=" stroke:none;fill-rule:nonzero;fill:rgb(100%,100%,100%);fill-opacity:1;" d="M 100.949219 13.691406 L 100.949219 23.691406 L 119.234375 23.691406 L 119.234375 13.691406 Z M 100.949219 13.691406 "/>
<path style=" stroke:none;fill-rule:nonzero;fill:rgb(100%,100%,100%);fill-opacity:1;" d="M 13.054688 0.28125 L 23.054688 0.28125 L 23.054688 37.355469 L 13.054688 37.355469 Z M 13.054688 0.28125 "/>
<path style=" stroke:none;fill-rule:nonzero;fill:rgb(100%,100%,100%);fill-opacity:1;" d="M 0.0585938 0.28125 L 0.0585938 10.28125 L 36.058594 10.28125 L 36.058594 0.28125 Z M 0.0585938 0.28125 "/>
<path style=" stroke:none;fill-rule:nonzero;fill:rgb(100%,100%,100%);fill-opacity:1;" d="M 26.050781 0.28125 L 36.050781 0.28125 L 36.050781 37.355469 L 26.050781 37.355469 Z M 26.050781 0.28125 "/>
<path style=" stroke:none;fill-rule:nonzero;fill:rgb(100%,100%,100%);fill-opacity:1;" d="M 0.0585938 0.28125 L 10.058594 0.28125 L 10.058594 37.355469 L 0.0585938 37.355469 Z M 0.0585938 0.28125 "/>
<path style=" stroke:none;fill-rule:nonzero;fill:rgb(0%,39.215088%,60.784912%);fill-opacity:1;" d="M 70.121094 77.5 L 39.121094 77.5 L 39.121094 67.5 L 70.121094 67.5 Z M 70.121094 77.5 "/>
<path style=" stroke:none;fill-rule:nonzero;fill:rgb(0%,39.215088%,60.784912%);fill-opacity:1;" d="M 56.925781 77.5 L 66.925781 77.5 L 66.925781 40.425781 L 56.925781 40.425781 Z M 56.925781 77.5 "/>
<path style=" stroke:none;fill-rule:nonzero;fill:rgb(100%,100%,100%);fill-opacity:1;" d="M 69.867188 77.5 L 79.867188 77.5 L 79.867188 40.425781 L 69.867188 40.425781 Z M 69.867188 77.5 "/>
<path style=" stroke:none;fill-rule:nonzero;fill:rgb(0%,39.215088%,60.784912%);fill-opacity:1;" d="M 38.988281 64.425781 L 53.988281 64.425781 L 53.988281 58.425781 L 38.988281 58.425781 Z M 38.988281 64.425781 "/>
<path style=" stroke:none;fill-rule:nonzero;fill:rgb(0%,39.215088%,60.784912%);fill-opacity:1;" d="M 38.988281 55.535156 L 53.988281 55.535156 L 53.988281 49.535156 L 38.988281 49.535156 Z M 38.988281 55.535156 "/>
<path style=" stroke:none;fill-rule:nonzero;fill:rgb(0%,39.215088%,60.784912%);fill-opacity:1;" d="M 44.988281 64.335938 L 44.988281 40.425781 L 38.988281 40.425781 L 38.988281 64.335938 Z M 44.988281 64.335938 "/>
<path style=" stroke:none;fill-rule:nonzero;fill:rgb(0%,39.215088%,60.784912%);fill-opacity:1;" d="M 53.988281 60.425781 L 53.988281 40.425781 L 47.988281 40.425781 L 47.988281 60.425781 Z M 53.988281 60.425781 "/>
<path style=" stroke:none;fill-rule:nonzero;fill:rgb(100%,100%,100%);fill-opacity:1;" d="M 100.875 77.5 L 110.875 77.5 L 110.875 40.425781 L 100.875 40.425781 Z M 100.875 77.5 "/>
<path style=" stroke:none;fill-rule:nonzero;fill:rgb(100%,100%,100%);fill-opacity:1;" d="M 113.949219 77.5 L 123.949219 77.5 L 123.949219 40.425781 L 113.949219 40.425781 Z M 113.949219 77.5 "/>
<path style=" stroke:none;fill-rule:nonzero;fill:rgb(100%,100%,100%);fill-opacity:1;" d="M 100.949219 77.5 L 100.949219 67.5 L 123.949219 67.5 L 123.949219 77.5 Z M 100.949219 77.5 "/>
<path style=" stroke:none;fill-rule:nonzero;fill:rgb(0%,39.215088%,60.784912%);fill-opacity:1;" d="M 124.402344 63.820312 L 124.328125 53.414062 L 119.160156 58.578125 Z M 124.402344 63.820312 "/>
<path style=" stroke:none;fill-rule:nonzero;fill:rgb(100%,100%,100%);fill-opacity:1;" d="M 100.875 63.964844 L 100.875 53.964844 L 119.160156 53.964844 L 119.160156 63.964844 Z M 100.875 63.964844 "/>
<path style=" stroke:none;fill-rule:nonzero;fill:rgb(0%,39.215088%,60.784912%);fill-opacity:1;" d="M 13.054688 77.5 L 23.054688 77.5 L 23.054688 40.425781 L 13.054688 40.425781 Z M 13.054688 77.5 "/>
<path style=" stroke:none;fill-rule:nonzero;fill:rgb(0%,39.215088%,60.784912%);fill-opacity:1;" d="M 0.0585938 77.5 L 0.0585938 67.5 L 36.058594 67.5 L 36.058594 77.5 Z M 0.0585938 77.5 "/>
<path style=" stroke:none;fill-rule:nonzero;fill:rgb(0%,39.215088%,60.784912%);fill-opacity:1;" d="M 26.050781 77.5 L 36.050781 77.5 L 36.050781 40.425781 L 26.050781 40.425781 Z M 26.050781 77.5 "/>
<path style=" stroke:none;fill-rule:nonzero;fill:rgb(0%,39.215088%,60.784912%);fill-opacity:1;" d="M 0.0585938 77.5 L 10.058594 77.5 L 10.058594 40.425781 L 0.0585938 40.425781 Z M 0.0585938 77.5 "/>
<path style=" stroke:none;fill-rule:nonzero;fill:rgb(100%,100%,100%);fill-opacity:1;" d="M 82.804688 40.425781 L 97.804688 40.425781 L 97.804688 46.425781 L 82.804688 46.425781 Z M 82.804688 40.425781 "/>
<path style=" stroke:none;fill-rule:nonzero;fill:rgb(100%,100%,100%);fill-opacity:1;" d="M 82.804688 49.320312 L 97.804688 49.320312 L 97.804688 55.320312 L 82.804688 55.320312 Z M 82.804688 49.320312 "/>
<path style=" stroke:none;fill-rule:nonzero;fill:rgb(100%,100%,100%);fill-opacity:1;" d="M 88.804688 40.519531 L 88.804688 64.425781 L 82.804688 64.425781 L 82.804688 40.519531 Z M 88.804688 40.519531 "/>
<path style=" stroke:none;fill-rule:nonzero;fill:rgb(100%,100%,100%);fill-opacity:1;" d="M 97.804688 44.425781 L 97.804688 64.425781 L 91.804688 64.425781 L 91.804688 44.425781 Z M 97.804688 44.425781 "/>
<path style=" stroke:none;fill-rule:nonzero;fill:rgb(100%,100%,100%);fill-opacity:1;" d="M 100.875 50.425781 L 100.875 40.425781 L 123.875 40.425781 L 123.875 50.425781 Z M 100.875 50.425781 "/>
<path style=" stroke:none;fill-rule:nonzero;fill:rgb(100%,100%,100%);fill-opacity:1;" d="M 97.804688 77.5 L 70.015625 77.5 L 70.015625 67.5 L 97.804688 67.5 Z M 97.804688 77.5 "/>
</g>
</svg>
