<?xml version="1.0" encoding="UTF-8"?>
<svg xmlns="http://www.w3.org/2000/svg" xmlns:xlink="http://www.w3.org/1999/xlink" width="320pt" height="106pt" viewBox="0 0 320 106" version="1.1">
<g id="surface1">
<path style=" stroke:none;fill-rule:nonzero;fill:rgb(0%,0%,0%);fill-opacity:1;" d="M 119.46875 0.679688 L 42.597656 0.679688 L 42.597656 7.679688 L 119.46875 7.679688 Z M 119.46875 0.679688 "/>
<path style=" stroke:none;fill-rule:nonzero;fill:rgb(0%,0%,0%);fill-opacity:1;" d="M 70.507812 0.679688 L 77.507812 0.679688 L 77.507812 49.730469 L 70.507812 49.730469 Z M 70.507812 0.679688 "/>
<path style=" stroke:none;fill-rule:nonzero;fill:rgb(0%,0%,0%);fill-opacity:1;" d="M 84.488281 0.679688 L 91.488281 0.679688 L 91.488281 49.730469 L 84.488281 49.730469 Z M 84.488281 0.679688 "/>
<path style=" stroke:none;fill-rule:nonzero;fill:rgb(0%,0%,0%);fill-opacity:1;" d="M 42.515625 14.40625 L 63.523438 14.40625 L 63.523438 21.40625 L 42.515625 21.40625 Z M 42.515625 14.40625 "/>
<path style=" stroke:none;fill-rule:nonzero;fill:rgb(0%,0%,0%);fill-opacity:1;" d="M 49.476562 14.730469 L 49.476562 49.730469 L 42.476562 49.730469 L 42.476562 14.730469 Z M 49.476562 14.730469 "/>
<path style=" stroke:none;fill-rule:nonzero;fill:rgb(0%,0%,0%);fill-opacity:1;" d="M 63.660156 14.789062 L 63.660156 49.789062 L 56.660156 49.789062 L 56.660156 14.789062 Z M 63.660156 14.789062 "/>
<path style=" stroke:none;fill-rule:nonzero;fill:rgb(0%,0%,0%);fill-opacity:1;" d="M 98.46875 14.40625 L 119.46875 14.40625 L 119.46875 21.40625 L 98.46875 21.40625 Z M 98.46875 14.40625 "/>
<path style=" stroke:none;fill-rule:nonzero;fill:rgb(0%,0%,0%);fill-opacity:1;" d="M 105.433594 14.789062 L 105.433594 49.789062 L 98.433594 49.789062 L 98.433594 14.789062 Z M 105.433594 14.789062 "/>
<path style=" stroke:none;fill-rule:nonzero;fill:rgb(0%,0%,0%);fill-opacity:1;" d="M 15.300781 0.679688 L 22.300781 0.679688 L 22.300781 49.730469 L 15.300781 49.730469 Z M 15.300781 0.679688 "/>
<path style=" stroke:none;fill-rule:nonzero;fill:rgb(0%,0%,0%);fill-opacity:1;" d="M 0.800781 0.679688 L 0.800781 7.679688 L 35.800781 7.679688 L 35.800781 0.679688 Z M 0.800781 0.679688 "/>
<path style=" stroke:none;fill-rule:nonzero;fill:rgb(0%,0%,0%);fill-opacity:1;" d="M 28.800781 0.679688 L 35.800781 0.679688 L 35.800781 49.730469 L 28.800781 49.730469 Z M 28.800781 0.679688 "/>
<path style=" stroke:none;fill-rule:nonzero;fill:rgb(0%,0%,0%);fill-opacity:1;" d="M 0.800781 0.679688 L 7.800781 0.679688 L 7.800781 49.730469 L 0.800781 49.730469 Z M 0.800781 0.679688 "/>
<path style=" stroke:none;fill-rule:nonzero;fill:rgb(0%,0%,0%);fill-opacity:1;" d="M 126.496094 0.796875 L 133.496094 0.796875 L 133.496094 49.796875 L 126.496094 49.796875 Z M 126.496094 0.796875 "/>
<path style=" stroke:none;fill-rule:nonzero;fill:rgb(0%,0%,0%);fill-opacity:1;" d="M 126.496094 0.679688 L 147.496094 0.679688 L 147.496094 7.679688 L 126.496094 7.679688 Z M 126.496094 0.679688 "/>
<path style=" stroke:none;fill-rule:nonzero;fill:rgb(0%,0%,0%);fill-opacity:1;" d="M 140.527344 0.796875 L 147.527344 0.796875 L 147.527344 49.796875 L 140.527344 49.796875 Z M 140.527344 0.796875 "/>
<path style=" stroke:none;fill-rule:nonzero;fill:rgb(0%,0%,0%);fill-opacity:1;" d="M 126.527344 21.796875 L 147.527344 21.796875 L 147.527344 28.796875 L 126.527344 28.796875 Z M 126.527344 21.796875 "/>
<path style=" stroke:none;fill-rule:nonzero;fill:rgb(100%,100%,100%);fill-opacity:1;" d="M 148.644531 20 L 148.566406 30.410156 L 143.402344 25.242188 Z M 148.644531 20 "/>
<path style=" stroke:none;fill-rule:nonzero;fill:rgb(0%,0%,0%);fill-opacity:1;" d="M 42.648438 28.40625 L 63.660156 28.40625 L 63.660156 35.40625 L 42.648438 35.40625 Z M 42.648438 28.40625 "/>
<path style=" stroke:none;fill-rule:nonzero;fill:rgb(0%,0%,0%);fill-opacity:1;" d="M 98.433594 28.582031 L 119.441406 28.582031 L 119.441406 35.582031 L 98.433594 35.582031 Z M 98.433594 28.582031 "/>
<path style=" stroke:none;fill-rule:nonzero;fill:rgb(0%,0%,0%);fill-opacity:1;" d="M 98.496094 42.761719 L 119.496094 42.761719 L 119.496094 49.761719 L 98.496094 49.761719 Z M 98.496094 42.761719 "/>
<path style=" stroke:none;fill-rule:nonzero;fill:rgb(0%,39.215088%,60.784912%);fill-opacity:1;" d="M 84.488281 105.753906 L 91.488281 105.753906 L 91.488281 56.703125 L 84.488281 56.703125 Z M 84.488281 105.753906 "/>
<path style=" stroke:none;fill-rule:nonzero;fill:rgb(0%,39.215088%,60.784912%);fill-opacity:1;" d="M 126.496094 105.816406 L 133.496094 105.816406 L 133.496094 56.816406 L 126.496094 56.816406 Z M 126.496094 105.816406 "/>
<path style=" stroke:none;fill-rule:nonzero;fill:rgb(0%,39.215088%,60.784912%);fill-opacity:1;" d="M 126.496094 63.703125 L 147.496094 63.703125 L 147.496094 56.703125 L 126.496094 56.703125 Z M 126.496094 63.703125 "/>
<path style=" stroke:none;fill-rule:nonzero;fill:rgb(0%,39.215088%,60.784912%);fill-opacity:1;" d="M 140.527344 105.816406 L 147.527344 105.816406 L 147.527344 56.816406 L 140.527344 56.816406 Z M 140.527344 105.816406 "/>
<path style=" stroke:none;fill-rule:nonzero;fill:rgb(0%,39.215088%,60.784912%);fill-opacity:1;" d="M 126.527344 84.816406 L 147.527344 84.816406 L 147.527344 77.816406 L 126.527344 77.816406 Z M 126.527344 84.816406 "/>
<path style=" stroke:none;fill-rule:nonzero;fill:rgb(0%,39.215088%,60.784912%);fill-opacity:1;" d="M 126.527344 105.753906 L 147.527344 105.753906 L 147.527344 98.753906 L 126.527344 98.753906 Z M 126.527344 105.753906 "/>
<path style=" stroke:none;fill-rule:nonzero;fill:rgb(100%,100%,100%);fill-opacity:1;" d="M 148.644531 76.023438 L 148.566406 86.433594 L 143.402344 81.265625 Z M 148.644531 76.023438 "/>
<path style=" stroke:none;fill-rule:nonzero;fill:rgb(0%,39.215088%,60.784912%);fill-opacity:1;" d="M 98.382812 63.605469 L 119.394531 63.605469 L 119.394531 56.605469 L 98.382812 56.605469 Z M 98.382812 63.605469 "/>
<path style=" stroke:none;fill-rule:nonzero;fill:rgb(0%,39.215088%,60.784912%);fill-opacity:1;" d="M 98.347656 56.929688 L 98.347656 91.929688 L 105.347656 91.929688 L 105.347656 56.929688 Z M 98.347656 56.929688 "/>
<path style=" stroke:none;fill-rule:nonzero;fill:rgb(0%,39.215088%,60.784912%);fill-opacity:1;" d="M 112.527344 56.988281 L 112.527344 91.988281 L 119.527344 91.988281 L 119.527344 56.988281 Z M 112.527344 56.988281 "/>
<path style=" stroke:none;fill-rule:nonzero;fill:rgb(0%,39.215088%,60.784912%);fill-opacity:1;" d="M 98.519531 77.605469 L 119.527344 77.605469 L 119.527344 70.605469 L 98.519531 70.605469 Z M 98.519531 77.605469 "/>
<path style=" stroke:none;fill-rule:nonzero;fill:rgb(0%,39.215088%,60.784912%);fill-opacity:1;" d="M 119.585938 105.804688 L 84.488281 105.804688 L 84.488281 98.804688 L 119.585938 98.804688 Z M 119.585938 105.804688 "/>
<path style=" stroke:none;fill-rule:nonzero;fill:rgb(0%,0%,0%);fill-opacity:1;" d="M 170.328125 0.679688 L 275.285156 105.636719 L 170.328125 105.636719 Z M 170.328125 0.679688 "/>
<path style=" stroke:none;fill-rule:nonzero;fill:rgb(90.98053%,70.980835%,31.37207%);fill-opacity:1;" d="M 214.828125 0.679688 L 319.785156 105.636719 L 214.828125 105.636719 Z M 214.828125 0.679688 "/>
<path style=" stroke:none;fill-rule:nonzero;fill:rgb(0%,39.215088%,60.784912%);fill-opacity:1;" d="M 214.828125 45.210938 L 275.328125 105.710938 L 214.828125 105.710938 Z M 214.828125 45.210938 "/>
</g>
</svg>
