<?xml version="1.0" encoding="UTF-8"?>
<svg xmlns="http://www.w3.org/2000/svg" xmlns:xlink="http://www.w3.org/1999/xlink" width="272pt" height="106pt" viewBox="0 0 272 106" version="1.1">
<g id="surface1">
<path style=" stroke:none;fill-rule:nonzero;fill:rgb(0%,0%,0%);fill-opacity:1;" d="M 236.667969 0.160156 L 159.796875 0.160156 L 159.796875 7.160156 L 236.667969 7.160156 Z M 236.667969 0.160156 "/>
<path style=" stroke:none;fill-rule:nonzero;fill:rgb(0%,0%,0%);fill-opacity:1;" d="M 187.707031 0.160156 L 194.707031 0.160156 L 194.707031 49.210938 L 187.707031 49.210938 Z M 187.707031 0.160156 "/>
<path style=" stroke:none;fill-rule:nonzero;fill:rgb(0%,0%,0%);fill-opacity:1;" d="M 201.6875 0.160156 L 208.6875 0.160156 L 208.6875 49.210938 L 201.6875 49.210938 Z M 201.6875 0.160156 "/>
<path style=" stroke:none;fill-rule:nonzero;fill:rgb(0%,0%,0%);fill-opacity:1;" d="M 159.714844 13.886719 L 180.722656 13.886719 L 180.722656 20.886719 L 159.714844 20.886719 Z M 159.714844 13.886719 "/>
<path style=" stroke:none;fill-rule:nonzero;fill:rgb(0%,0%,0%);fill-opacity:1;" d="M 166.675781 14.210938 L 166.675781 49.210938 L 159.675781 49.210938 L 159.675781 14.210938 Z M 166.675781 14.210938 "/>
<path style=" stroke:none;fill-rule:nonzero;fill:rgb(0%,0%,0%);fill-opacity:1;" d="M 180.859375 14.269531 L 180.859375 49.269531 L 173.859375 49.269531 L 173.859375 14.269531 Z M 180.859375 14.269531 "/>
<path style=" stroke:none;fill-rule:nonzero;fill:rgb(0%,0%,0%);fill-opacity:1;" d="M 215.667969 13.886719 L 236.667969 13.886719 L 236.667969 20.886719 L 215.667969 20.886719 Z M 215.667969 13.886719 "/>
<path style=" stroke:none;fill-rule:nonzero;fill:rgb(0%,0%,0%);fill-opacity:1;" d="M 222.632812 14.269531 L 222.632812 49.269531 L 215.632812 49.269531 L 215.632812 14.269531 Z M 222.632812 14.269531 "/>
<path style=" stroke:none;fill-rule:nonzero;fill:rgb(0%,0%,0%);fill-opacity:1;" d="M 132.5 0.160156 L 139.5 0.160156 L 139.5 49.210938 L 132.5 49.210938 Z M 132.5 0.160156 "/>
<path style=" stroke:none;fill-rule:nonzero;fill:rgb(0%,0%,0%);fill-opacity:1;" d="M 118 0.160156 L 118 7.160156 L 153 7.160156 L 153 0.160156 Z M 118 0.160156 "/>
<path style=" stroke:none;fill-rule:nonzero;fill:rgb(0%,0%,0%);fill-opacity:1;" d="M 146 0.160156 L 153 0.160156 L 153 49.210938 L 146 49.210938 Z M 146 0.160156 "/>
<path style=" stroke:none;fill-rule:nonzero;fill:rgb(0%,0%,0%);fill-opacity:1;" d="M 118 0.160156 L 125 0.160156 L 125 49.210938 L 118 49.210938 Z M 118 0.160156 "/>
<path style=" stroke:none;fill-rule:nonzero;fill:rgb(0%,0%,0%);fill-opacity:1;" d="M 243.695312 0.277344 L 250.695312 0.277344 L 250.695312 49.277344 L 243.695312 49.277344 Z M 243.695312 0.277344 "/>
<path style=" stroke:none;fill-rule:nonzero;fill:rgb(0%,0%,0%);fill-opacity:1;" d="M 243.695312 0.160156 L 264.695312 0.160156 L 264.695312 7.160156 L 243.695312 7.160156 Z M 243.695312 0.160156 "/>
<path style=" stroke:none;fill-rule:nonzero;fill:rgb(0%,0%,0%);fill-opacity:1;" d="M 257.726562 0.277344 L 264.726562 0.277344 L 264.726562 49.277344 L 257.726562 49.277344 Z M 257.726562 0.277344 "/>
<path style=" stroke:none;fill-rule:nonzero;fill:rgb(0%,0%,0%);fill-opacity:1;" d="M 243.726562 21.277344 L 264.726562 21.277344 L 264.726562 28.277344 L 243.726562 28.277344 Z M 243.726562 21.277344 "/>
<path style=" stroke:none;fill-rule:nonzero;fill:rgb(100%,100%,100%);fill-opacity:1;" d="M 265.84375 19.484375 L 265.765625 29.890625 L 260.601562 24.726562 Z M 265.84375 19.484375 "/>
<path style=" stroke:none;fill-rule:nonzero;fill:rgb(0%,0%,0%);fill-opacity:1;" d="M 159.847656 27.886719 L 180.859375 27.886719 L 180.859375 34.886719 L 159.847656 34.886719 Z M 159.847656 27.886719 "/>
<path style=" stroke:none;fill-rule:nonzero;fill:rgb(0%,0%,0%);fill-opacity:1;" d="M 215.632812 28.0625 L 236.644531 28.0625 L 236.644531 35.0625 L 215.632812 35.0625 Z M 215.632812 28.0625 "/>
<path style=" stroke:none;fill-rule:nonzero;fill:rgb(0%,0%,0%);fill-opacity:1;" d="M 215.699219 42.242188 L 236.699219 42.242188 L 236.699219 49.242188 L 215.699219 49.242188 Z M 215.699219 42.242188 "/>
<path style=" stroke:none;fill-rule:nonzero;fill:rgb(0%,39.215088%,60.784912%);fill-opacity:1;" d="M 201.6875 105.234375 L 208.6875 105.234375 L 208.6875 56.183594 L 201.6875 56.183594 Z M 201.6875 105.234375 "/>
<path style=" stroke:none;fill-rule:nonzero;fill:rgb(0%,39.215088%,60.784912%);fill-opacity:1;" d="M 243.695312 105.300781 L 250.695312 105.300781 L 250.695312 56.300781 L 243.695312 56.300781 Z M 243.695312 105.300781 "/>
<path style=" stroke:none;fill-rule:nonzero;fill:rgb(0%,39.215088%,60.784912%);fill-opacity:1;" d="M 243.695312 63.183594 L 264.695312 63.183594 L 264.695312 56.183594 L 243.695312 56.183594 Z M 243.695312 63.183594 "/>
<path style=" stroke:none;fill-rule:nonzero;fill:rgb(0%,39.215088%,60.784912%);fill-opacity:1;" d="M 257.726562 105.300781 L 264.726562 105.300781 L 264.726562 56.300781 L 257.726562 56.300781 Z M 257.726562 105.300781 "/>
<path style=" stroke:none;fill-rule:nonzero;fill:rgb(0%,39.215088%,60.784912%);fill-opacity:1;" d="M 243.726562 84.300781 L 264.726562 84.300781 L 264.726562 77.300781 L 243.726562 77.300781 Z M 243.726562 84.300781 "/>
<path style=" stroke:none;fill-rule:nonzero;fill:rgb(0%,39.215088%,60.784912%);fill-opacity:1;" d="M 243.726562 105.234375 L 264.726562 105.234375 L 264.726562 98.234375 L 243.726562 98.234375 Z M 243.726562 105.234375 "/>
<path style=" stroke:none;fill-rule:nonzero;fill:rgb(100%,100%,100%);fill-opacity:1;" d="M 265.84375 75.503906 L 265.765625 85.914062 L 260.601562 80.746094 Z M 265.84375 75.503906 "/>
<path style=" stroke:none;fill-rule:nonzero;fill:rgb(0%,39.215088%,60.784912%);fill-opacity:1;" d="M 215.582031 63.085938 L 236.59375 63.085938 L 236.59375 56.085938 L 215.582031 56.085938 Z M 215.582031 63.085938 "/>
<path style=" stroke:none;fill-rule:nonzero;fill:rgb(0%,39.215088%,60.784912%);fill-opacity:1;" d="M 215.546875 56.410156 L 215.546875 91.410156 L 222.546875 91.410156 L 222.546875 56.410156 Z M 215.546875 56.410156 "/>
<path style=" stroke:none;fill-rule:nonzero;fill:rgb(0%,39.215088%,60.784912%);fill-opacity:1;" d="M 229.726562 56.472656 L 229.726562 91.472656 L 236.726562 91.472656 L 236.726562 56.472656 Z M 229.726562 56.472656 "/>
<path style=" stroke:none;fill-rule:nonzero;fill:rgb(0%,39.215088%,60.784912%);fill-opacity:1;" d="M 215.71875 77.085938 L 236.726562 77.085938 L 236.726562 70.085938 L 215.71875 70.085938 Z M 215.71875 77.085938 "/>
<path style=" stroke:none;fill-rule:nonzero;fill:rgb(0%,39.215088%,60.784912%);fill-opacity:1;" d="M 236.785156 105.285156 L 201.6875 105.285156 L 201.6875 98.285156 L 236.785156 98.285156 Z M 236.785156 105.285156 "/>
<path style=" stroke:none;fill-rule:nonzero;fill:rgb(0%,0%,0%);fill-opacity:1;" d="M 0.800781 0.160156 L 105.757812 105.117188 L 0.800781 105.117188 Z M 0.800781 0.160156 "/>
<path style=" stroke:none;fill-rule:nonzero;fill:rgb(90.98053%,70.980835%,31.37207%);fill-opacity:1;" d="M 45.300781 0.160156 L 150.257812 105.117188 L 45.300781 105.117188 Z M 45.300781 0.160156 "/>
<path style=" stroke:none;fill-rule:nonzero;fill:rgb(0%,39.215088%,60.784912%);fill-opacity:1;" d="M 45.300781 44.691406 L 105.652344 105.042969 L 45.300781 105.042969 Z M 45.300781 44.691406 "/>
</g>
</svg>
