<?xml version="1.0" encoding="UTF-8"?>
<svg xmlns="http://www.w3.org/2000/svg" xmlns:xlink="http://www.w3.org/1999/xlink" width="130pt" height="78pt" viewBox="0 0 130 78" version="1.1">
<g id="surface1">
<path style=" stroke:none;fill-rule:nonzero;fill:rgb(0%,0%,0%);fill-opacity:1;" d="M 97.832031 0.28125 L 39.148438 0.28125 L 39.148438 10.28125 L 97.832031 10.28125 Z M 97.832031 0.28125 "/>
<path style=" stroke:none;fill-rule:nonzero;fill:rgb(0%,0%,0%);fill-opacity:1;" d="M 56.953125 0.28125 L 66.953125 0.28125 L 66.953125 37.355469 L 56.953125 37.355469 Z M 56.953125 0.28125 "/>
<path style=" stroke:none;fill-rule:nonzero;fill:rgb(0%,0%,0%);fill-opacity:1;" d="M 69.890625 0.28125 L 79.890625 0.28125 L 79.890625 37.355469 L 69.890625 37.355469 Z M 69.890625 0.28125 "/>
<path style=" stroke:none;fill-rule:nonzero;fill:rgb(0%,0%,0%);fill-opacity:1;" d="M 39.015625 13.355469 L 54.015625 13.355469 L 54.015625 19.355469 L 39.015625 19.355469 Z M 39.015625 13.355469 "/>
<path style=" stroke:none;fill-rule:nonzero;fill:rgb(0%,0%,0%);fill-opacity:1;" d="M 39.015625 22.246094 L 54.015625 22.246094 L 54.015625 28.246094 L 39.015625 28.246094 Z M 39.015625 22.246094 "/>
<path style=" stroke:none;fill-rule:nonzero;fill:rgb(0%,0%,0%);fill-opacity:1;" d="M 45.015625 13.445312 L 45.015625 37.355469 L 39.015625 37.355469 L 39.015625 13.445312 Z M 45.015625 13.445312 "/>
<path style=" stroke:none;fill-rule:nonzero;fill:rgb(0%,0%,0%);fill-opacity:1;" d="M 54.015625 17.355469 L 54.015625 37.355469 L 48.015625 37.355469 L 48.015625 17.355469 Z M 54.015625 17.355469 "/>
<path style=" stroke:none;fill-rule:nonzero;fill:rgb(0%,0%,0%);fill-opacity:1;" d="M 82.832031 13.273438 L 97.832031 13.273438 L 97.832031 19.273438 L 82.832031 19.273438 Z M 82.832031 13.273438 "/>
<path style=" stroke:none;fill-rule:nonzero;fill:rgb(0%,0%,0%);fill-opacity:1;" d="M 82.832031 31.355469 L 97.832031 31.355469 L 97.832031 37.355469 L 82.832031 37.355469 Z M 82.832031 31.355469 "/>
<path style=" stroke:none;fill-rule:nonzero;fill:rgb(0%,0%,0%);fill-opacity:1;" d="M 82.832031 22.351562 L 97.832031 22.351562 L 97.832031 28.351562 L 82.832031 28.351562 Z M 82.832031 22.351562 "/>
<path style=" stroke:none;fill-rule:nonzero;fill:rgb(0%,0%,0%);fill-opacity:1;" d="M 88.832031 13.539062 L 88.832031 37.355469 L 82.832031 37.355469 L 82.832031 13.539062 Z M 88.832031 13.539062 "/>
<path style=" stroke:none;fill-rule:nonzero;fill:rgb(100%,100%,100%);fill-opacity:1;" d="M 112.539062 20.527344 L 111.925781 20.527344 L 111.925781 7.066406 L 112.539062 7.066406 Z M 112.539062 20.527344 "/>
<path style=" stroke:none;fill-rule:nonzero;fill:rgb(0%,0%,0%);fill-opacity:1;" d="M 100.902344 0.28125 L 110.902344 0.28125 L 110.902344 37.355469 L 100.902344 37.355469 Z M 100.902344 0.28125 "/>
<path style=" stroke:none;fill-rule:nonzero;fill:rgb(0%,0%,0%);fill-opacity:1;" d="M 113.976562 0.28125 L 123.976562 0.28125 L 123.976562 37.355469 L 113.976562 37.355469 Z M 113.976562 0.28125 "/>
<path style=" stroke:none;fill-rule:nonzero;fill:rgb(0%,0%,0%);fill-opacity:1;" d="M 100.976562 0.28125 L 100.976562 10.28125 L 123.976562 10.28125 L 123.976562 0.28125 Z M 100.976562 0.28125 "/>
<path style=" stroke:none;fill-rule:nonzero;fill:rgb(100%,100%,100%);fill-opacity:1;" d="M 124.429688 13.960938 L 124.351562 24.367188 L 119.1875 19.203125 Z M 124.429688 13.960938 "/>
<path style=" stroke:none;fill-rule:nonzero;fill:rgb(0%,0%,0%);fill-opacity:1;" d="M 100.976562 13.691406 L 100.976562 23.691406 L 119.261719 23.691406 L 119.261719 13.691406 Z M 100.976562 13.691406 "/>
<path style=" stroke:none;fill-rule:nonzero;fill:rgb(0%,0%,0%);fill-opacity:1;" d="M 13.082031 0.28125 L 23.082031 0.28125 L 23.082031 37.355469 L 13.082031 37.355469 Z M 13.082031 0.28125 "/>
<path style=" stroke:none;fill-rule:nonzero;fill:rgb(0%,0%,0%);fill-opacity:1;" d="M 0.0859375 0.28125 L 0.0859375 10.28125 L 36.085938 10.28125 L 36.085938 0.28125 Z M 0.0859375 0.28125 "/>
<path style=" stroke:none;fill-rule:nonzero;fill:rgb(0%,0%,0%);fill-opacity:1;" d="M 26.074219 0.28125 L 36.074219 0.28125 L 36.074219 37.355469 L 26.074219 37.355469 Z M 26.074219 0.28125 "/>
<path style=" stroke:none;fill-rule:nonzero;fill:rgb(0%,0%,0%);fill-opacity:1;" d="M 0.0859375 0.28125 L 10.085938 0.28125 L 10.085938 37.355469 L 0.0859375 37.355469 Z M 0.0859375 0.28125 "/>
<path style=" stroke:none;fill-rule:nonzero;fill:rgb(0%,0%,0%);fill-opacity:1;" d="M 97.832031 77.5 L 39.148438 77.5 L 39.148438 67.5 L 97.832031 67.5 Z M 97.832031 77.5 "/>
<path style=" stroke:none;fill-rule:nonzero;fill:rgb(0%,0%,0%);fill-opacity:1;" d="M 56.953125 77.5 L 66.953125 77.5 L 66.953125 40.425781 L 56.953125 40.425781 Z M 56.953125 77.5 "/>
<path style=" stroke:none;fill-rule:nonzero;fill:rgb(0%,39.215088%,60.784912%);fill-opacity:1;" d="M 69.890625 77.5 L 79.890625 77.5 L 79.890625 40.425781 L 69.890625 40.425781 Z M 69.890625 77.5 "/>
<path style=" stroke:none;fill-rule:nonzero;fill:rgb(0%,0%,0%);fill-opacity:1;" d="M 39.015625 64.425781 L 54.015625 64.425781 L 54.015625 58.425781 L 39.015625 58.425781 Z M 39.015625 64.425781 "/>
<path style=" stroke:none;fill-rule:nonzero;fill:rgb(0%,0%,0%);fill-opacity:1;" d="M 39.015625 55.535156 L 54.015625 55.535156 L 54.015625 49.535156 L 39.015625 49.535156 Z M 39.015625 55.535156 "/>
<path style=" stroke:none;fill-rule:nonzero;fill:rgb(0%,0%,0%);fill-opacity:1;" d="M 45.015625 64.335938 L 45.015625 40.425781 L 39.015625 40.425781 L 39.015625 64.335938 Z M 45.015625 64.335938 "/>
<path style=" stroke:none;fill-rule:nonzero;fill:rgb(0%,0%,0%);fill-opacity:1;" d="M 54.015625 60.425781 L 54.015625 40.425781 L 48.015625 40.425781 L 48.015625 60.425781 Z M 54.015625 60.425781 "/>
<path style=" stroke:none;fill-rule:nonzero;fill:rgb(0%,39.215088%,60.784912%);fill-opacity:1;" d="M 100.902344 77.5 L 110.902344 77.5 L 110.902344 40.425781 L 100.902344 40.425781 Z M 100.902344 77.5 "/>
<path style=" stroke:none;fill-rule:nonzero;fill:rgb(0%,39.215088%,60.784912%);fill-opacity:1;" d="M 113.976562 77.5 L 123.976562 77.5 L 123.976562 40.425781 L 113.976562 40.425781 Z M 113.976562 77.5 "/>
<path style=" stroke:none;fill-rule:nonzero;fill:rgb(0%,39.215088%,60.784912%);fill-opacity:1;" d="M 100.976562 77.5 L 100.976562 67.5 L 123.976562 67.5 L 123.976562 77.5 Z M 100.976562 77.5 "/>
<path style=" stroke:none;fill-rule:nonzero;fill:rgb(100%,100%,100%);fill-opacity:1;" d="M 124.429688 63.820312 L 124.351562 53.414062 L 119.1875 58.578125 Z M 124.429688 63.820312 "/>
<path style=" stroke:none;fill-rule:nonzero;fill:rgb(0%,39.215088%,60.784912%);fill-opacity:1;" d="M 100.902344 63.964844 L 100.902344 53.964844 L 119.1875 53.964844 L 119.1875 63.964844 Z M 100.902344 63.964844 "/>
<path style=" stroke:none;fill-rule:nonzero;fill:rgb(0%,0%,0%);fill-opacity:1;" d="M 13.082031 77.5 L 23.082031 77.5 L 23.082031 40.425781 L 13.082031 40.425781 Z M 13.082031 77.5 "/>
<path style=" stroke:none;fill-rule:nonzero;fill:rgb(0%,0%,0%);fill-opacity:1;" d="M 0.0859375 77.5 L 0.0859375 67.5 L 36.085938 67.5 L 36.085938 77.5 Z M 0.0859375 77.5 "/>
<path style=" stroke:none;fill-rule:nonzero;fill:rgb(0%,0%,0%);fill-opacity:1;" d="M 26.074219 77.5 L 36.074219 77.5 L 36.074219 40.425781 L 26.074219 40.425781 Z M 26.074219 77.5 "/>
<path style=" stroke:none;fill-rule:nonzero;fill:rgb(0%,0%,0%);fill-opacity:1;" d="M 0.0859375 77.5 L 10.085938 77.5 L 10.085938 40.425781 L 0.0859375 40.425781 Z M 0.0859375 77.5 "/>
<path style=" stroke:none;fill-rule:nonzero;fill:rgb(0%,39.215088%,60.784912%);fill-opacity:1;" d="M 82.832031 40.425781 L 97.832031 40.425781 L 97.832031 46.425781 L 82.832031 46.425781 Z M 82.832031 40.425781 "/>
<path style=" stroke:none;fill-rule:nonzero;fill:rgb(0%,39.215088%,60.784912%);fill-opacity:1;" d="M 82.832031 49.320312 L 97.832031 49.320312 L 97.832031 55.320312 L 82.832031 55.320312 Z M 82.832031 49.320312 "/>
<path style=" stroke:none;fill-rule:nonzero;fill:rgb(0%,39.215088%,60.784912%);fill-opacity:1;" d="M 88.832031 40.519531 L 88.832031 64.425781 L 82.832031 64.425781 L 82.832031 40.519531 Z M 88.832031 40.519531 "/>
<path style=" stroke:none;fill-rule:nonzero;fill:rgb(0%,39.215088%,60.784912%);fill-opacity:1;" d="M 97.832031 44.425781 L 97.832031 64.425781 L 91.832031 64.425781 L 91.832031 44.425781 Z M 97.832031 44.425781 "/>
<path style=" stroke:none;fill-rule:nonzero;fill:rgb(0%,39.215088%,60.784912%);fill-opacity:1;" d="M 100.902344 50.425781 L 100.902344 40.425781 L 123.902344 40.425781 L 123.902344 50.425781 Z M 100.902344 50.425781 "/>
<path style=" stroke:none;fill-rule:nonzero;fill:rgb(0%,39.215088%,60.784912%);fill-opacity:1;" d="M 97.832031 77.5 L 70.042969 77.5 L 70.042969 67.5 L 97.832031 67.5 Z M 97.832031 77.5 "/>
</g>
</svg>
