<?xml version="1.0" encoding="UTF-8"?>
<svg xmlns="http://www.w3.org/2000/svg" xmlns:xlink="http://www.w3.org/1999/xlink" width="154pt" height="106pt" viewBox="0 0 154 106" version="1.1">
<g id="surface1">
<path style=" stroke:none;fill-rule:nonzero;fill:rgb(0%,0%,0%);fill-opacity:1;" d="M 119.269531 0.800781 L 42.394531 0.800781 L 42.394531 7.800781 L 119.269531 7.800781 Z M 119.269531 0.800781 "/>
<path style=" stroke:none;fill-rule:nonzero;fill:rgb(0%,0%,0%);fill-opacity:1;" d="M 70.304688 0.800781 L 77.304688 0.800781 L 77.304688 49.851562 L 70.304688 49.851562 Z M 70.304688 0.800781 "/>
<path style=" stroke:none;fill-rule:nonzero;fill:rgb(0%,0%,0%);fill-opacity:1;" d="M 84.289062 0.800781 L 91.289062 0.800781 L 91.289062 49.851562 L 84.289062 49.851562 Z M 84.289062 0.800781 "/>
<path style=" stroke:none;fill-rule:nonzero;fill:rgb(0%,0%,0%);fill-opacity:1;" d="M 42.3125 14.523438 L 63.324219 14.523438 L 63.324219 21.523438 L 42.3125 21.523438 Z M 42.3125 14.523438 "/>
<path style=" stroke:none;fill-rule:nonzero;fill:rgb(0%,0%,0%);fill-opacity:1;" d="M 49.277344 14.851562 L 49.277344 49.851562 L 42.277344 49.851562 L 42.277344 14.851562 Z M 49.277344 14.851562 "/>
<path style=" stroke:none;fill-rule:nonzero;fill:rgb(0%,0%,0%);fill-opacity:1;" d="M 63.457031 14.910156 L 63.457031 49.910156 L 56.457031 49.910156 L 56.457031 14.910156 Z M 63.457031 14.910156 "/>
<path style=" stroke:none;fill-rule:nonzero;fill:rgb(0%,0%,0%);fill-opacity:1;" d="M 98.269531 14.523438 L 119.269531 14.523438 L 119.269531 21.523438 L 98.269531 21.523438 Z M 98.269531 14.523438 "/>
<path style=" stroke:none;fill-rule:nonzero;fill:rgb(0%,0%,0%);fill-opacity:1;" d="M 105.234375 14.910156 L 105.234375 49.910156 L 98.234375 49.910156 L 98.234375 14.910156 Z M 105.234375 14.910156 "/>
<path style=" stroke:none;fill-rule:nonzero;fill:rgb(0%,0%,0%);fill-opacity:1;" d="M 15.101562 0.800781 L 22.101562 0.800781 L 22.101562 49.851562 L 15.101562 49.851562 Z M 15.101562 0.800781 "/>
<path style=" stroke:none;fill-rule:nonzero;fill:rgb(0%,0%,0%);fill-opacity:1;" d="M 0.601562 0.800781 L 0.601562 7.800781 L 35.601562 7.800781 L 35.601562 0.800781 Z M 0.601562 0.800781 "/>
<path style=" stroke:none;fill-rule:nonzero;fill:rgb(0%,0%,0%);fill-opacity:1;" d="M 28.601562 0.800781 L 35.601562 0.800781 L 35.601562 49.851562 L 28.601562 49.851562 Z M 28.601562 0.800781 "/>
<path style=" stroke:none;fill-rule:nonzero;fill:rgb(0%,0%,0%);fill-opacity:1;" d="M 0.601562 0.800781 L 7.601562 0.800781 L 7.601562 49.851562 L 0.601562 49.851562 Z M 0.601562 0.800781 "/>
<path style=" stroke:none;fill-rule:nonzero;fill:rgb(0%,0%,0%);fill-opacity:1;" d="M 126.296875 0.914062 L 133.296875 0.914062 L 133.296875 49.914062 L 126.296875 49.914062 Z M 126.296875 0.914062 "/>
<path style=" stroke:none;fill-rule:nonzero;fill:rgb(0%,0%,0%);fill-opacity:1;" d="M 126.296875 0.800781 L 147.296875 0.800781 L 147.296875 7.800781 L 126.296875 7.800781 Z M 126.296875 0.800781 "/>
<path style=" stroke:none;fill-rule:nonzero;fill:rgb(0%,0%,0%);fill-opacity:1;" d="M 140.324219 0.914062 L 147.324219 0.914062 L 147.324219 49.914062 L 140.324219 49.914062 Z M 140.324219 0.914062 "/>
<path style=" stroke:none;fill-rule:nonzero;fill:rgb(0%,0%,0%);fill-opacity:1;" d="M 126.324219 21.914062 L 147.324219 21.914062 L 147.324219 28.914062 L 126.324219 28.914062 Z M 126.324219 21.914062 "/>
<path style=" stroke:none;fill-rule:nonzero;fill:rgb(100%,100%,100%);fill-opacity:1;" d="M 148.441406 20.121094 L 148.367188 30.53125 L 143.199219 25.363281 Z M 148.441406 20.121094 "/>
<path style=" stroke:none;fill-rule:nonzero;fill:rgb(0%,0%,0%);fill-opacity:1;" d="M 42.449219 28.523438 L 63.457031 28.523438 L 63.457031 35.523438 L 42.449219 35.523438 Z M 42.449219 28.523438 "/>
<path style=" stroke:none;fill-rule:nonzero;fill:rgb(0%,0%,0%);fill-opacity:1;" d="M 98.234375 28.703125 L 119.242188 28.703125 L 119.242188 35.703125 L 98.234375 35.703125 Z M 98.234375 28.703125 "/>
<path style=" stroke:none;fill-rule:nonzero;fill:rgb(0%,0%,0%);fill-opacity:1;" d="M 98.296875 42.878906 L 119.296875 42.878906 L 119.296875 49.878906 L 98.296875 49.878906 Z M 98.296875 42.878906 "/>
<path style=" stroke:none;fill-rule:nonzero;fill:rgb(0%,0%,0%);fill-opacity:1;" d="M 84.398438 105.914062 L 42.394531 105.914062 L 42.394531 98.914062 L 84.398438 98.914062 Z M 84.398438 105.914062 "/>
<path style=" stroke:none;fill-rule:nonzero;fill:rgb(0%,0%,0%);fill-opacity:1;" d="M 70.304688 105.875 L 77.304688 105.875 L 77.304688 56.824219 L 70.304688 56.824219 Z M 70.304688 105.875 "/>
<path style=" stroke:none;fill-rule:nonzero;fill:rgb(0%,39.215088%,60.784912%);fill-opacity:1;" d="M 84.289062 105.875 L 91.289062 105.875 L 91.289062 56.824219 L 84.289062 56.824219 Z M 84.289062 105.875 "/>
<path style=" stroke:none;fill-rule:nonzero;fill:rgb(0%,0%,0%);fill-opacity:1;" d="M 42.394531 92.324219 L 63.40625 92.324219 L 63.40625 85.324219 L 42.394531 85.324219 Z M 42.394531 92.324219 "/>
<path style=" stroke:none;fill-rule:nonzero;fill:rgb(0%,0%,0%);fill-opacity:1;" d="M 42.394531 57.265625 L 42.394531 92.265625 L 49.394531 92.265625 L 49.394531 57.265625 Z M 42.394531 57.265625 "/>
<path style=" stroke:none;fill-rule:nonzero;fill:rgb(0%,0%,0%);fill-opacity:1;" d="M 56.578125 57.324219 L 56.578125 92.324219 L 63.578125 92.324219 L 63.578125 57.324219 Z M 56.578125 57.324219 "/>
<path style=" stroke:none;fill-rule:nonzero;fill:rgb(0%,0%,0%);fill-opacity:1;" d="M 15.101562 105.875 L 22.101562 105.875 L 22.101562 56.824219 L 15.101562 56.824219 Z M 15.101562 105.875 "/>
<path style=" stroke:none;fill-rule:nonzero;fill:rgb(0%,0%,0%);fill-opacity:1;" d="M 0.601562 105.875 L 0.601562 98.875 L 35.601562 98.875 L 35.601562 105.875 Z M 0.601562 105.875 "/>
<path style=" stroke:none;fill-rule:nonzero;fill:rgb(0%,0%,0%);fill-opacity:1;" d="M 28.601562 105.875 L 35.601562 105.875 L 35.601562 56.824219 L 28.601562 56.824219 Z M 28.601562 105.875 "/>
<path style=" stroke:none;fill-rule:nonzero;fill:rgb(0%,0%,0%);fill-opacity:1;" d="M 0.601562 105.875 L 7.601562 105.875 L 7.601562 56.824219 L 0.601562 56.824219 Z M 0.601562 105.875 "/>
<path style=" stroke:none;fill-rule:nonzero;fill:rgb(0%,39.215088%,60.784912%);fill-opacity:1;" d="M 126.296875 105.9375 L 133.296875 105.9375 L 133.296875 56.9375 L 126.296875 56.9375 Z M 126.296875 105.9375 "/>
<path style=" stroke:none;fill-rule:nonzero;fill:rgb(0%,39.215088%,60.784912%);fill-opacity:1;" d="M 126.296875 63.824219 L 147.296875 63.824219 L 147.296875 56.824219 L 126.296875 56.824219 Z M 126.296875 63.824219 "/>
<path style=" stroke:none;fill-rule:nonzero;fill:rgb(0%,39.215088%,60.784912%);fill-opacity:1;" d="M 140.324219 105.9375 L 147.324219 105.9375 L 147.324219 56.9375 L 140.324219 56.9375 Z M 140.324219 105.9375 "/>
<path style=" stroke:none;fill-rule:nonzero;fill:rgb(0%,39.215088%,60.784912%);fill-opacity:1;" d="M 126.324219 84.9375 L 147.324219 84.9375 L 147.324219 77.9375 L 126.324219 77.9375 Z M 126.324219 84.9375 "/>
<path style=" stroke:none;fill-rule:nonzero;fill:rgb(0%,39.215088%,60.784912%);fill-opacity:1;" d="M 126.324219 105.875 L 147.324219 105.875 L 147.324219 98.875 L 126.324219 98.875 Z M 126.324219 105.875 "/>
<path style=" stroke:none;fill-rule:nonzero;fill:rgb(100%,100%,100%);fill-opacity:1;" d="M 148.441406 76.144531 L 148.367188 86.550781 L 143.199219 81.386719 Z M 148.441406 76.144531 "/>
<path style=" stroke:none;fill-rule:nonzero;fill:rgb(0%,0%,0%);fill-opacity:1;" d="M 42.566406 77.9375 L 63.578125 77.9375 L 63.578125 70.9375 L 42.566406 70.9375 Z M 42.566406 77.9375 "/>
<path style=" stroke:none;fill-rule:nonzero;fill:rgb(0%,39.215088%,60.784912%);fill-opacity:1;" d="M 98.183594 63.722656 L 119.195312 63.722656 L 119.195312 56.722656 L 98.183594 56.722656 Z M 98.183594 63.722656 "/>
<path style=" stroke:none;fill-rule:nonzero;fill:rgb(0%,39.215088%,60.784912%);fill-opacity:1;" d="M 98.148438 57.050781 L 98.148438 92.050781 L 105.148438 92.050781 L 105.148438 57.050781 Z M 98.148438 57.050781 "/>
<path style=" stroke:none;fill-rule:nonzero;fill:rgb(0%,39.215088%,60.784912%);fill-opacity:1;" d="M 112.328125 57.109375 L 112.328125 92.109375 L 119.328125 92.109375 L 119.328125 57.109375 Z M 112.328125 57.109375 "/>
<path style=" stroke:none;fill-rule:nonzero;fill:rgb(0%,39.215088%,60.784912%);fill-opacity:1;" d="M 98.316406 77.722656 L 119.328125 77.722656 L 119.328125 70.722656 L 98.316406 70.722656 Z M 98.316406 77.722656 "/>
<path style=" stroke:none;fill-rule:nonzero;fill:rgb(0%,39.215088%,60.784912%);fill-opacity:1;" d="M 119.386719 105.925781 L 84.289062 105.925781 L 84.289062 98.925781 L 119.386719 98.925781 Z M 119.386719 105.925781 "/>
</g>
</svg>
