<?xml version="1.0" encoding="UTF-8"?>
<svg xmlns="http://www.w3.org/2000/svg" xmlns:xlink="http://www.w3.org/1999/xlink" width="154pt" height="107pt" viewBox="0 0 154 107" version="1.1">
<g id="surface1">
<path style=" stroke:none;fill-rule:nonzero;fill:rgb(0%,0%,0%);fill-opacity:1;" d="M 119.234375 0.914062 L 42.363281 0.914062 L 42.363281 7.914062 L 119.234375 7.914062 Z M 119.234375 0.914062 "/>
<path style=" stroke:none;fill-rule:nonzero;fill:rgb(0%,0%,0%);fill-opacity:1;" d="M 70.269531 0.914062 L 77.269531 0.914062 L 77.269531 49.96875 L 70.269531 49.96875 Z M 70.269531 0.914062 "/>
<path style=" stroke:none;fill-rule:nonzero;fill:rgb(0%,0%,0%);fill-opacity:1;" d="M 84.253906 0.914062 L 91.253906 0.914062 L 91.253906 49.96875 L 84.253906 49.96875 Z M 84.253906 0.914062 "/>
<path style=" stroke:none;fill-rule:nonzero;fill:rgb(0%,0%,0%);fill-opacity:1;" d="M 42.277344 14.640625 L 63.289062 14.640625 L 63.289062 21.640625 L 42.277344 21.640625 Z M 42.277344 14.640625 "/>
<path style=" stroke:none;fill-rule:nonzero;fill:rgb(0%,0%,0%);fill-opacity:1;" d="M 49.242188 14.96875 L 49.242188 49.96875 L 42.242188 49.96875 L 42.242188 14.96875 Z M 49.242188 14.96875 "/>
<path style=" stroke:none;fill-rule:nonzero;fill:rgb(0%,0%,0%);fill-opacity:1;" d="M 63.421875 15.027344 L 63.421875 50.027344 L 56.421875 50.027344 L 56.421875 15.027344 Z M 63.421875 15.027344 "/>
<path style=" stroke:none;fill-rule:nonzero;fill:rgb(0%,0%,0%);fill-opacity:1;" d="M 98.234375 14.640625 L 119.234375 14.640625 L 119.234375 21.640625 L 98.234375 21.640625 Z M 98.234375 14.640625 "/>
<path style=" stroke:none;fill-rule:nonzero;fill:rgb(0%,0%,0%);fill-opacity:1;" d="M 105.199219 15.027344 L 105.199219 50.027344 L 98.199219 50.027344 L 98.199219 15.027344 Z M 105.199219 15.027344 "/>
<path style=" stroke:none;fill-rule:nonzero;fill:rgb(0%,0%,0%);fill-opacity:1;" d="M 15.066406 0.914062 L 22.066406 0.914062 L 22.066406 49.964844 L 15.066406 49.964844 Z M 15.066406 0.914062 "/>
<path style=" stroke:none;fill-rule:nonzero;fill:rgb(0%,0%,0%);fill-opacity:1;" d="M 0.566406 0.914062 L 0.566406 7.914062 L 35.566406 7.914062 L 35.566406 0.914062 Z M 0.566406 0.914062 "/>
<path style=" stroke:none;fill-rule:nonzero;fill:rgb(0%,0%,0%);fill-opacity:1;" d="M 28.566406 0.914062 L 35.566406 0.914062 L 35.566406 49.96875 L 28.566406 49.96875 Z M 28.566406 0.914062 "/>
<path style=" stroke:none;fill-rule:nonzero;fill:rgb(0%,0%,0%);fill-opacity:1;" d="M 0.566406 0.914062 L 7.566406 0.914062 L 7.566406 49.964844 L 0.566406 49.964844 Z M 0.566406 0.914062 "/>
<path style=" stroke:none;fill-rule:nonzero;fill:rgb(0%,0%,0%);fill-opacity:1;" d="M 126.261719 1.03125 L 133.261719 1.03125 L 133.261719 50.03125 L 126.261719 50.03125 Z M 126.261719 1.03125 "/>
<path style=" stroke:none;fill-rule:nonzero;fill:rgb(0%,0%,0%);fill-opacity:1;" d="M 126.261719 0.914062 L 147.261719 0.914062 L 147.261719 7.914062 L 126.261719 7.914062 Z M 126.261719 0.914062 "/>
<path style=" stroke:none;fill-rule:nonzero;fill:rgb(0%,0%,0%);fill-opacity:1;" d="M 140.289062 1.03125 L 147.289062 1.03125 L 147.289062 50.03125 L 140.289062 50.03125 Z M 140.289062 1.03125 "/>
<path style=" stroke:none;fill-rule:nonzero;fill:rgb(0%,0%,0%);fill-opacity:1;" d="M 126.289062 22.03125 L 147.289062 22.03125 L 147.289062 29.03125 L 126.289062 29.03125 Z M 126.289062 22.03125 "/>
<path style=" stroke:none;fill-rule:nonzero;fill:rgb(100%,100%,100%);fill-opacity:1;" d="M 148.40625 20.238281 L 148.332031 30.644531 L 143.164062 25.480469 Z M 148.40625 20.238281 "/>
<path style=" stroke:none;fill-rule:nonzero;fill:rgb(0%,0%,0%);fill-opacity:1;" d="M 42.414062 28.640625 L 63.421875 28.640625 L 63.421875 35.640625 L 42.414062 35.640625 Z M 42.414062 28.640625 "/>
<path style=" stroke:none;fill-rule:nonzero;fill:rgb(0%,0%,0%);fill-opacity:1;" d="M 98.199219 28.816406 L 119.207031 28.816406 L 119.207031 35.816406 L 98.199219 35.816406 Z M 98.199219 28.816406 "/>
<path style=" stroke:none;fill-rule:nonzero;fill:rgb(0%,0%,0%);fill-opacity:1;" d="M 98.261719 42.996094 L 119.261719 42.996094 L 119.261719 49.996094 L 98.261719 49.996094 Z M 98.261719 42.996094 "/>
<path style=" stroke:none;fill-rule:nonzero;fill:rgb(0%,39.215088%,60.784912%);fill-opacity:1;" d="M 84.253906 105.988281 L 91.253906 105.988281 L 91.253906 56.9375 L 84.253906 56.9375 Z M 84.253906 105.988281 "/>
<path style=" stroke:none;fill-rule:nonzero;fill:rgb(0%,39.215088%,60.784912%);fill-opacity:1;" d="M 126.261719 106.054688 L 133.261719 106.054688 L 133.261719 57.054688 L 126.261719 57.054688 Z M 126.261719 106.054688 "/>
<path style=" stroke:none;fill-rule:nonzero;fill:rgb(0%,39.215088%,60.784912%);fill-opacity:1;" d="M 126.261719 63.9375 L 147.261719 63.9375 L 147.261719 56.9375 L 126.261719 56.9375 Z M 126.261719 63.9375 "/>
<path style=" stroke:none;fill-rule:nonzero;fill:rgb(0%,39.215088%,60.784912%);fill-opacity:1;" d="M 140.289062 106.054688 L 147.289062 106.054688 L 147.289062 57.054688 L 140.289062 57.054688 Z M 140.289062 106.054688 "/>
<path style=" stroke:none;fill-rule:nonzero;fill:rgb(0%,39.215088%,60.784912%);fill-opacity:1;" d="M 126.289062 85.054688 L 147.289062 85.054688 L 147.289062 78.054688 L 126.289062 78.054688 Z M 126.289062 85.054688 "/>
<path style=" stroke:none;fill-rule:nonzero;fill:rgb(0%,39.215088%,60.784912%);fill-opacity:1;" d="M 126.289062 105.988281 L 147.289062 105.988281 L 147.289062 98.988281 L 126.289062 98.988281 Z M 126.289062 105.988281 "/>
<path style=" stroke:none;fill-rule:nonzero;fill:rgb(100%,100%,100%);fill-opacity:1;" d="M 148.40625 76.261719 L 148.332031 86.667969 L 143.164062 81.503906 Z M 148.40625 76.261719 "/>
<path style=" stroke:none;fill-rule:nonzero;fill:rgb(0%,39.215088%,60.784912%);fill-opacity:1;" d="M 98.148438 63.839844 L 119.160156 63.839844 L 119.160156 56.839844 L 98.148438 56.839844 Z M 98.148438 63.839844 "/>
<path style=" stroke:none;fill-rule:nonzero;fill:rgb(0%,39.215088%,60.784912%);fill-opacity:1;" d="M 98.113281 57.167969 L 98.113281 92.167969 L 105.113281 92.167969 L 105.113281 57.167969 Z M 98.113281 57.167969 "/>
<path style=" stroke:none;fill-rule:nonzero;fill:rgb(0%,39.215088%,60.784912%);fill-opacity:1;" d="M 112.292969 57.226562 L 112.292969 92.226562 L 119.292969 92.226562 L 119.292969 57.226562 Z M 112.292969 57.226562 "/>
<path style=" stroke:none;fill-rule:nonzero;fill:rgb(0%,39.215088%,60.784912%);fill-opacity:1;" d="M 98.28125 77.839844 L 119.292969 77.839844 L 119.292969 70.839844 L 98.28125 70.839844 Z M 98.28125 77.839844 "/>
<path style=" stroke:none;fill-rule:nonzero;fill:rgb(0%,39.215088%,60.784912%);fill-opacity:1;" d="M 119.351562 106.039062 L 84.253906 106.039062 L 84.253906 99.039062 L 119.351562 99.039062 Z M 119.351562 106.039062 "/>
</g>
</svg>
