<?xml version="1.0" encoding="UTF-8"?>
<svg xmlns="http://www.w3.org/2000/svg" xmlns:xlink="http://www.w3.org/1999/xlink" width="289pt" height="119pt" viewBox="0 0 289 119" version="1.1">
<g id="surface1">
<path style=" stroke:none;fill-rule:nonzero;fill:rgb(0%,39.215088%,60.784912%);fill-opacity:1;" d="M 0.199219 1 L 288.46875 1 L 288.46875 118.601562 L 0.199219 118.601562 Z M 0.199219 1 "/>
<path style=" stroke:none;fill-rule:nonzero;fill:rgb(100%,100%,100%);fill-opacity:1;" d="M 254.128906 7.363281 L 177.257812 7.363281 L 177.257812 14.363281 L 254.128906 14.363281 Z M 254.128906 7.363281 "/>
<path style=" stroke:none;fill-rule:nonzero;fill:rgb(100%,100%,100%);fill-opacity:1;" d="M 205.164062 7.363281 L 212.164062 7.363281 L 212.164062 56.414062 L 205.164062 56.414062 Z M 205.164062 7.363281 "/>
<path style=" stroke:none;fill-rule:nonzero;fill:rgb(100%,100%,100%);fill-opacity:1;" d="M 219.148438 7.363281 L 226.148438 7.363281 L 226.148438 56.414062 L 219.148438 56.414062 Z M 219.148438 7.363281 "/>
<path style=" stroke:none;fill-rule:nonzero;fill:rgb(100%,100%,100%);fill-opacity:1;" d="M 177.171875 21.085938 L 198.183594 21.085938 L 198.183594 28.085938 L 177.171875 28.085938 Z M 177.171875 21.085938 "/>
<path style=" stroke:none;fill-rule:nonzero;fill:rgb(100%,100%,100%);fill-opacity:1;" d="M 184.136719 21.414062 L 184.136719 56.414062 L 177.136719 56.414062 L 177.136719 21.414062 Z M 184.136719 21.414062 "/>
<path style=" stroke:none;fill-rule:nonzero;fill:rgb(100%,100%,100%);fill-opacity:1;" d="M 198.316406 21.472656 L 198.316406 56.472656 L 191.316406 56.472656 L 191.316406 21.472656 Z M 198.316406 21.472656 "/>
<path style=" stroke:none;fill-rule:nonzero;fill:rgb(100%,100%,100%);fill-opacity:1;" d="M 233.128906 21.085938 L 254.128906 21.085938 L 254.128906 28.085938 L 233.128906 28.085938 Z M 233.128906 21.085938 "/>
<path style=" stroke:none;fill-rule:nonzero;fill:rgb(100%,100%,100%);fill-opacity:1;" d="M 240.09375 21.472656 L 240.09375 56.472656 L 233.09375 56.472656 L 233.09375 21.472656 Z M 240.09375 21.472656 "/>
<path style=" stroke:none;fill-rule:nonzero;fill:rgb(100%,100%,100%);fill-opacity:1;" d="M 149.960938 7.363281 L 156.960938 7.363281 L 156.960938 56.414062 L 149.960938 56.414062 Z M 149.960938 7.363281 "/>
<path style=" stroke:none;fill-rule:nonzero;fill:rgb(100%,100%,100%);fill-opacity:1;" d="M 135.460938 7.363281 L 135.460938 14.363281 L 170.460938 14.363281 L 170.460938 7.363281 Z M 135.460938 7.363281 "/>
<path style=" stroke:none;fill-rule:nonzero;fill:rgb(100%,100%,100%);fill-opacity:1;" d="M 163.460938 7.363281 L 170.460938 7.363281 L 170.460938 56.414062 L 163.460938 56.414062 Z M 163.460938 7.363281 "/>
<path style=" stroke:none;fill-rule:nonzero;fill:rgb(100%,100%,100%);fill-opacity:1;" d="M 135.460938 7.363281 L 142.460938 7.363281 L 142.460938 56.414062 L 135.460938 56.414062 Z M 135.460938 7.363281 "/>
<path style=" stroke:none;fill-rule:nonzero;fill:rgb(100%,100%,100%);fill-opacity:1;" d="M 261.15625 7.476562 L 268.15625 7.476562 L 268.15625 56.476562 L 261.15625 56.476562 Z M 261.15625 7.476562 "/>
<path style=" stroke:none;fill-rule:nonzero;fill:rgb(100%,100%,100%);fill-opacity:1;" d="M 261.15625 7.363281 L 282.15625 7.363281 L 282.15625 14.363281 L 261.15625 14.363281 Z M 261.15625 7.363281 "/>
<path style=" stroke:none;fill-rule:nonzero;fill:rgb(100%,100%,100%);fill-opacity:1;" d="M 275.183594 7.476562 L 282.183594 7.476562 L 282.183594 56.476562 L 275.183594 56.476562 Z M 275.183594 7.476562 "/>
<path style=" stroke:none;fill-rule:nonzero;fill:rgb(100%,100%,100%);fill-opacity:1;" d="M 261.183594 28.476562 L 282.183594 28.476562 L 282.183594 35.476562 L 261.183594 35.476562 Z M 261.183594 28.476562 "/>
<path style=" stroke:none;fill-rule:nonzero;fill:rgb(0%,39.215088%,60.784912%);fill-opacity:1;" d="M 283.300781 26.683594 L 283.226562 37.089844 L 278.058594 31.925781 Z M 283.300781 26.683594 "/>
<path style=" stroke:none;fill-rule:nonzero;fill:rgb(100%,100%,100%);fill-opacity:1;" d="M 177.308594 35.085938 L 198.316406 35.085938 L 198.316406 42.085938 L 177.308594 42.085938 Z M 177.308594 35.085938 "/>
<path style=" stroke:none;fill-rule:nonzero;fill:rgb(100%,100%,100%);fill-opacity:1;" d="M 233.09375 35.265625 L 254.101562 35.265625 L 254.101562 42.265625 L 233.09375 42.265625 Z M 233.09375 35.265625 "/>
<path style=" stroke:none;fill-rule:nonzero;fill:rgb(100%,100%,100%);fill-opacity:1;" d="M 233.15625 49.441406 L 254.15625 49.441406 L 254.15625 56.441406 L 233.15625 56.441406 Z M 233.15625 49.441406 "/>
<path style=" stroke:none;fill-rule:nonzero;fill:rgb(100%,100%,100%);fill-opacity:1;" d="M 219.148438 112.433594 L 226.148438 112.433594 L 226.148438 63.382812 L 219.148438 63.382812 Z M 219.148438 112.433594 "/>
<path style=" stroke:none;fill-rule:nonzero;fill:rgb(100%,100%,100%);fill-opacity:1;" d="M 261.15625 112.5 L 268.15625 112.5 L 268.15625 63.5 L 261.15625 63.5 Z M 261.15625 112.5 "/>
<path style=" stroke:none;fill-rule:nonzero;fill:rgb(100%,100%,100%);fill-opacity:1;" d="M 261.15625 70.382812 L 282.15625 70.382812 L 282.15625 63.382812 L 261.15625 63.382812 Z M 261.15625 70.382812 "/>
<path style=" stroke:none;fill-rule:nonzero;fill:rgb(100%,100%,100%);fill-opacity:1;" d="M 275.183594 112.5 L 282.183594 112.5 L 282.183594 63.5 L 275.183594 63.5 Z M 275.183594 112.5 "/>
<path style=" stroke:none;fill-rule:nonzero;fill:rgb(100%,100%,100%);fill-opacity:1;" d="M 261.183594 91.5 L 282.183594 91.5 L 282.183594 84.5 L 261.183594 84.5 Z M 261.183594 91.5 "/>
<path style=" stroke:none;fill-rule:nonzero;fill:rgb(100%,100%,100%);fill-opacity:1;" d="M 261.183594 112.433594 L 282.183594 112.433594 L 282.183594 105.433594 L 261.183594 105.433594 Z M 261.183594 112.433594 "/>
<path style=" stroke:none;fill-rule:nonzero;fill:rgb(0%,39.215088%,60.784912%);fill-opacity:1;" d="M 283.300781 82.707031 L 283.226562 93.113281 L 278.058594 87.949219 Z M 283.300781 82.707031 "/>
<path style=" stroke:none;fill-rule:nonzero;fill:rgb(100%,100%,100%);fill-opacity:1;" d="M 233.042969 70.285156 L 254.054688 70.285156 L 254.054688 63.285156 L 233.042969 63.285156 Z M 233.042969 70.285156 "/>
<path style=" stroke:none;fill-rule:nonzero;fill:rgb(100%,100%,100%);fill-opacity:1;" d="M 233.007812 63.613281 L 233.007812 98.613281 L 240.007812 98.613281 L 240.007812 63.613281 Z M 233.007812 63.613281 "/>
<path style=" stroke:none;fill-rule:nonzero;fill:rgb(100%,100%,100%);fill-opacity:1;" d="M 247.1875 63.671875 L 247.1875 98.671875 L 254.1875 98.671875 L 254.1875 63.671875 Z M 247.1875 63.671875 "/>
<path style=" stroke:none;fill-rule:nonzero;fill:rgb(100%,100%,100%);fill-opacity:1;" d="M 233.175781 84.285156 L 254.1875 84.285156 L 254.1875 77.285156 L 233.175781 77.285156 Z M 233.175781 84.285156 "/>
<path style=" stroke:none;fill-rule:nonzero;fill:rgb(100%,100%,100%);fill-opacity:1;" d="M 254.246094 112.484375 L 219.148438 112.484375 L 219.148438 105.484375 L 254.246094 105.484375 Z M 254.246094 112.484375 "/>
<path style=" stroke:none;fill-rule:nonzero;fill:rgb(0%,0%,0%);fill-opacity:1;" d="M 6.652344 7.542969 L 111.609375 112.5 L 6.652344 112.5 Z M 6.652344 7.542969 "/>
<path style=" stroke:none;fill-rule:nonzero;fill:rgb(90.98053%,70.980835%,31.37207%);fill-opacity:1;" d="M 51.152344 7.542969 L 156.109375 112.5 L 51.152344 112.5 Z M 51.152344 7.542969 "/>
<path style=" stroke:none;fill-rule:nonzero;fill:rgb(0%,39.215088%,60.784912%);fill-opacity:1;" d="M 51.152344 52.074219 L 111.652344 112.574219 L 51.152344 112.574219 Z M 51.152344 52.074219 "/>
</g>
</svg>
