<?xml version="1.0" encoding="UTF-8"?>
<svg xmlns="http://www.w3.org/2000/svg" xmlns:xlink="http://www.w3.org/1999/xlink" width="154pt" height="106pt" viewBox="0 0 154 106" version="1.1">
<g id="surface1">
<path style=" stroke:none;fill-rule:nonzero;fill:rgb(100%,100%,100%);fill-opacity:1;" d="M 119.394531 0.753906 L 42.519531 0.753906 L 42.519531 7.753906 L 119.394531 7.753906 Z M 119.394531 0.753906 "/>
<path style=" stroke:none;fill-rule:nonzero;fill:rgb(100%,100%,100%);fill-opacity:1;" d="M 70.429688 0.753906 L 77.429688 0.753906 L 77.429688 49.804688 L 70.429688 49.804688 Z M 70.429688 0.753906 "/>
<path style=" stroke:none;fill-rule:nonzero;fill:rgb(100%,100%,100%);fill-opacity:1;" d="M 84.410156 0.753906 L 91.410156 0.753906 L 91.410156 49.804688 L 84.410156 49.804688 Z M 84.410156 0.753906 "/>
<path style=" stroke:none;fill-rule:nonzero;fill:rgb(100%,100%,100%);fill-opacity:1;" d="M 42.4375 14.480469 L 63.449219 14.480469 L 63.449219 21.480469 L 42.4375 21.480469 Z M 42.4375 14.480469 "/>
<path style=" stroke:none;fill-rule:nonzero;fill:rgb(100%,100%,100%);fill-opacity:1;" d="M 49.402344 14.804688 L 49.402344 49.804688 L 42.402344 49.804688 L 42.402344 14.804688 Z M 49.402344 14.804688 "/>
<path style=" stroke:none;fill-rule:nonzero;fill:rgb(100%,100%,100%);fill-opacity:1;" d="M 63.582031 14.867188 L 63.582031 49.867188 L 56.582031 49.867188 L 56.582031 14.867188 Z M 63.582031 14.867188 "/>
<path style=" stroke:none;fill-rule:nonzero;fill:rgb(100%,100%,100%);fill-opacity:1;" d="M 98.394531 14.480469 L 119.394531 14.480469 L 119.394531 21.480469 L 98.394531 21.480469 Z M 98.394531 14.480469 "/>
<path style=" stroke:none;fill-rule:nonzero;fill:rgb(100%,100%,100%);fill-opacity:1;" d="M 105.355469 14.867188 L 105.355469 49.867188 L 98.355469 49.867188 L 98.355469 14.867188 Z M 105.355469 14.867188 "/>
<path style=" stroke:none;fill-rule:nonzero;fill:rgb(100%,100%,100%);fill-opacity:1;" d="M 15.226562 0.753906 L 22.226562 0.753906 L 22.226562 49.804688 L 15.226562 49.804688 Z M 15.226562 0.753906 "/>
<path style=" stroke:none;fill-rule:nonzero;fill:rgb(100%,100%,100%);fill-opacity:1;" d="M 0.726562 0.753906 L 0.726562 7.753906 L 35.726562 7.753906 L 35.726562 0.753906 Z M 0.726562 0.753906 "/>
<path style=" stroke:none;fill-rule:nonzero;fill:rgb(100%,100%,100%);fill-opacity:1;" d="M 28.726562 0.753906 L 35.726562 0.753906 L 35.726562 49.804688 L 28.726562 49.804688 Z M 28.726562 0.753906 "/>
<path style=" stroke:none;fill-rule:nonzero;fill:rgb(100%,100%,100%);fill-opacity:1;" d="M 0.726562 0.753906 L 7.726562 0.753906 L 7.726562 49.804688 L 0.726562 49.804688 Z M 0.726562 0.753906 "/>
<path style=" stroke:none;fill-rule:nonzero;fill:rgb(100%,100%,100%);fill-opacity:1;" d="M 126.421875 0.871094 L 133.421875 0.871094 L 133.421875 49.871094 L 126.421875 49.871094 Z M 126.421875 0.871094 "/>
<path style=" stroke:none;fill-rule:nonzero;fill:rgb(100%,100%,100%);fill-opacity:1;" d="M 126.421875 0.753906 L 147.421875 0.753906 L 147.421875 7.753906 L 126.421875 7.753906 Z M 126.421875 0.753906 "/>
<path style=" stroke:none;fill-rule:nonzero;fill:rgb(100%,100%,100%);fill-opacity:1;" d="M 140.449219 0.871094 L 147.449219 0.871094 L 147.449219 49.871094 L 140.449219 49.871094 Z M 140.449219 0.871094 "/>
<path style=" stroke:none;fill-rule:nonzero;fill:rgb(100%,100%,100%);fill-opacity:1;" d="M 126.449219 21.871094 L 147.449219 21.871094 L 147.449219 28.871094 L 126.449219 28.871094 Z M 126.449219 21.871094 "/>
<path style=" stroke:none;fill-rule:nonzero;fill:rgb(0%,39.215088%,60.784912%);fill-opacity:1;" d="M 148.566406 20.078125 L 148.488281 30.484375 L 143.324219 25.320312 Z M 148.566406 20.078125 "/>
<path style=" stroke:none;fill-rule:nonzero;fill:rgb(100%,100%,100%);fill-opacity:1;" d="M 42.574219 28.480469 L 63.582031 28.480469 L 63.582031 35.480469 L 42.574219 35.480469 Z M 42.574219 28.480469 "/>
<path style=" stroke:none;fill-rule:nonzero;fill:rgb(100%,100%,100%);fill-opacity:1;" d="M 98.355469 28.65625 L 119.367188 28.65625 L 119.367188 35.65625 L 98.355469 35.65625 Z M 98.355469 28.65625 "/>
<path style=" stroke:none;fill-rule:nonzero;fill:rgb(100%,100%,100%);fill-opacity:1;" d="M 98.421875 42.835938 L 119.421875 42.835938 L 119.421875 49.835938 L 98.421875 49.835938 Z M 98.421875 42.835938 "/>
<path style=" stroke:none;fill-rule:nonzero;fill:rgb(0%,39.215088%,60.784912%);fill-opacity:1;" d="M 84.523438 105.871094 L 42.519531 105.871094 L 42.519531 98.871094 L 84.523438 98.871094 Z M 84.523438 105.871094 "/>
<path style=" stroke:none;fill-rule:nonzero;fill:rgb(0%,39.215088%,60.784912%);fill-opacity:1;" d="M 70.429688 105.828125 L 77.429688 105.828125 L 77.429688 56.777344 L 70.429688 56.777344 Z M 70.429688 105.828125 "/>
<path style=" stroke:none;fill-rule:nonzero;fill:rgb(100%,100%,100%);fill-opacity:1;" d="M 84.410156 105.828125 L 91.410156 105.828125 L 91.410156 56.777344 L 84.410156 56.777344 Z M 84.410156 105.828125 "/>
<path style=" stroke:none;fill-rule:nonzero;fill:rgb(0%,39.215088%,60.784912%);fill-opacity:1;" d="M 42.519531 92.277344 L 63.53125 92.277344 L 63.53125 85.277344 L 42.519531 85.277344 Z M 42.519531 92.277344 "/>
<path style=" stroke:none;fill-rule:nonzero;fill:rgb(0%,39.215088%,60.784912%);fill-opacity:1;" d="M 42.519531 57.21875 L 42.519531 92.21875 L 49.519531 92.21875 L 49.519531 57.21875 Z M 42.519531 57.21875 "/>
<path style=" stroke:none;fill-rule:nonzero;fill:rgb(0%,39.215088%,60.784912%);fill-opacity:1;" d="M 56.703125 57.277344 L 56.703125 92.277344 L 63.703125 92.277344 L 63.703125 57.277344 Z M 56.703125 57.277344 "/>
<path style=" stroke:none;fill-rule:nonzero;fill:rgb(0%,39.215088%,60.784912%);fill-opacity:1;" d="M 15.226562 105.828125 L 22.226562 105.828125 L 22.226562 56.777344 L 15.226562 56.777344 Z M 15.226562 105.828125 "/>
<path style=" stroke:none;fill-rule:nonzero;fill:rgb(0%,39.215088%,60.784912%);fill-opacity:1;" d="M 0.726562 105.828125 L 0.726562 98.828125 L 35.726562 98.828125 L 35.726562 105.828125 Z M 0.726562 105.828125 "/>
<path style=" stroke:none;fill-rule:nonzero;fill:rgb(0%,39.215088%,60.784912%);fill-opacity:1;" d="M 28.726562 105.828125 L 35.726562 105.828125 L 35.726562 56.777344 L 28.726562 56.777344 Z M 28.726562 105.828125 "/>
<path style=" stroke:none;fill-rule:nonzero;fill:rgb(0%,39.215088%,60.784912%);fill-opacity:1;" d="M 0.726562 105.828125 L 7.726562 105.828125 L 7.726562 56.777344 L 0.726562 56.777344 Z M 0.726562 105.828125 "/>
<path style=" stroke:none;fill-rule:nonzero;fill:rgb(100%,100%,100%);fill-opacity:1;" d="M 126.421875 105.894531 L 133.421875 105.894531 L 133.421875 56.894531 L 126.421875 56.894531 Z M 126.421875 105.894531 "/>
<path style=" stroke:none;fill-rule:nonzero;fill:rgb(100%,100%,100%);fill-opacity:1;" d="M 126.421875 63.777344 L 147.421875 63.777344 L 147.421875 56.777344 L 126.421875 56.777344 Z M 126.421875 63.777344 "/>
<path style=" stroke:none;fill-rule:nonzero;fill:rgb(100%,100%,100%);fill-opacity:1;" d="M 140.449219 105.894531 L 147.449219 105.894531 L 147.449219 56.894531 L 140.449219 56.894531 Z M 140.449219 105.894531 "/>
<path style=" stroke:none;fill-rule:nonzero;fill:rgb(100%,100%,100%);fill-opacity:1;" d="M 126.449219 84.894531 L 147.449219 84.894531 L 147.449219 77.894531 L 126.449219 77.894531 Z M 126.449219 84.894531 "/>
<path style=" stroke:none;fill-rule:nonzero;fill:rgb(100%,100%,100%);fill-opacity:1;" d="M 126.449219 105.828125 L 147.449219 105.828125 L 147.449219 98.828125 L 126.449219 98.828125 Z M 126.449219 105.828125 "/>
<path style=" stroke:none;fill-rule:nonzero;fill:rgb(0%,39.215088%,60.784912%);fill-opacity:1;" d="M 148.566406 76.097656 L 148.488281 86.507812 L 143.324219 81.339844 Z M 148.566406 76.097656 "/>
<path style=" stroke:none;fill-rule:nonzero;fill:rgb(0%,39.215088%,60.784912%);fill-opacity:1;" d="M 42.691406 77.894531 L 63.703125 77.894531 L 63.703125 70.894531 L 42.691406 70.894531 Z M 42.691406 77.894531 "/>
<path style=" stroke:none;fill-rule:nonzero;fill:rgb(100%,100%,100%);fill-opacity:1;" d="M 98.308594 63.679688 L 119.320312 63.679688 L 119.320312 56.679688 L 98.308594 56.679688 Z M 98.308594 63.679688 "/>
<path style=" stroke:none;fill-rule:nonzero;fill:rgb(100%,100%,100%);fill-opacity:1;" d="M 98.273438 57.003906 L 98.273438 92.003906 L 105.273438 92.003906 L 105.273438 57.003906 Z M 98.273438 57.003906 "/>
<path style=" stroke:none;fill-rule:nonzero;fill:rgb(100%,100%,100%);fill-opacity:1;" d="M 112.453125 57.066406 L 112.453125 92.066406 L 119.453125 92.066406 L 119.453125 57.066406 Z M 112.453125 57.066406 "/>
<path style=" stroke:none;fill-rule:nonzero;fill:rgb(100%,100%,100%);fill-opacity:1;" d="M 98.441406 77.679688 L 119.453125 77.679688 L 119.453125 70.679688 L 98.441406 70.679688 Z M 98.441406 77.679688 "/>
<path style=" stroke:none;fill-rule:nonzero;fill:rgb(100%,100%,100%);fill-opacity:1;" d="M 119.507812 105.878906 L 84.410156 105.878906 L 84.410156 98.878906 L 119.507812 98.878906 Z M 119.507812 105.878906 "/>
</g>
</svg>
