<?xml version="1.0" encoding="UTF-8"?>
<svg xmlns="http://www.w3.org/2000/svg" xmlns:xlink="http://www.w3.org/1999/xlink" width="332pt" height="120pt" viewBox="0 0 332 120" version="1.1">
<g id="surface1">
<path style=" stroke:none;fill-rule:nonzero;fill:rgb(0%,39.215088%,60.784912%);fill-opacity:1;" d="M 0.601562 0.710938 L 331.601562 0.710938 L 331.601562 119.710938 L 0.601562 119.710938 Z M 0.601562 0.710938 "/>
<path style=" stroke:none;fill-rule:nonzero;fill:rgb(100%,100%,100%);fill-opacity:1;" d="M 125.929688 7.578125 L 49.054688 7.578125 L 49.054688 14.578125 L 125.929688 14.578125 Z M 125.929688 7.578125 "/>
<path style=" stroke:none;fill-rule:nonzero;fill:rgb(100%,100%,100%);fill-opacity:1;" d="M 76.964844 7.578125 L 83.964844 7.578125 L 83.964844 56.632812 L 76.964844 56.632812 Z M 76.964844 7.578125 "/>
<path style=" stroke:none;fill-rule:nonzero;fill:rgb(100%,100%,100%);fill-opacity:1;" d="M 90.949219 7.578125 L 97.949219 7.578125 L 97.949219 56.632812 L 90.949219 56.632812 Z M 90.949219 7.578125 "/>
<path style=" stroke:none;fill-rule:nonzero;fill:rgb(100%,100%,100%);fill-opacity:1;" d="M 48.972656 21.304688 L 69.984375 21.304688 L 69.984375 28.304688 L 48.972656 28.304688 Z M 48.972656 21.304688 "/>
<path style=" stroke:none;fill-rule:nonzero;fill:rgb(100%,100%,100%);fill-opacity:1;" d="M 55.9375 21.632812 L 55.9375 56.632812 L 48.9375 56.632812 L 48.9375 21.632812 Z M 55.9375 21.632812 "/>
<path style=" stroke:none;fill-rule:nonzero;fill:rgb(100%,100%,100%);fill-opacity:1;" d="M 70.117188 21.691406 L 70.117188 56.691406 L 63.117188 56.691406 L 63.117188 21.691406 Z M 70.117188 21.691406 "/>
<path style=" stroke:none;fill-rule:nonzero;fill:rgb(100%,100%,100%);fill-opacity:1;" d="M 104.929688 21.304688 L 125.929688 21.304688 L 125.929688 28.304688 L 104.929688 28.304688 Z M 104.929688 21.304688 "/>
<path style=" stroke:none;fill-rule:nonzero;fill:rgb(100%,100%,100%);fill-opacity:1;" d="M 111.890625 21.691406 L 111.890625 56.691406 L 104.890625 56.691406 L 104.890625 21.691406 Z M 111.890625 21.691406 "/>
<path style=" stroke:none;fill-rule:nonzero;fill:rgb(100%,100%,100%);fill-opacity:1;" d="M 21.761719 7.578125 L 28.761719 7.578125 L 28.761719 56.628906 L 21.761719 56.628906 Z M 21.761719 7.578125 "/>
<path style=" stroke:none;fill-rule:nonzero;fill:rgb(100%,100%,100%);fill-opacity:1;" d="M 7.261719 7.578125 L 7.261719 14.578125 L 42.261719 14.578125 L 42.261719 7.578125 Z M 7.261719 7.578125 "/>
<path style=" stroke:none;fill-rule:nonzero;fill:rgb(100%,100%,100%);fill-opacity:1;" d="M 35.261719 7.578125 L 42.261719 7.578125 L 42.261719 56.632812 L 35.261719 56.632812 Z M 35.261719 7.578125 "/>
<path style=" stroke:none;fill-rule:nonzero;fill:rgb(100%,100%,100%);fill-opacity:1;" d="M 7.261719 7.578125 L 14.261719 7.578125 L 14.261719 56.628906 L 7.261719 56.628906 Z M 7.261719 7.578125 "/>
<path style=" stroke:none;fill-rule:nonzero;fill:rgb(100%,100%,100%);fill-opacity:1;" d="M 132.957031 7.695312 L 139.957031 7.695312 L 139.957031 56.695312 L 132.957031 56.695312 Z M 132.957031 7.695312 "/>
<path style=" stroke:none;fill-rule:nonzero;fill:rgb(100%,100%,100%);fill-opacity:1;" d="M 132.957031 7.578125 L 153.957031 7.578125 L 153.957031 14.578125 L 132.957031 14.578125 Z M 132.957031 7.578125 "/>
<path style=" stroke:none;fill-rule:nonzero;fill:rgb(100%,100%,100%);fill-opacity:1;" d="M 146.984375 7.695312 L 153.984375 7.695312 L 153.984375 56.695312 L 146.984375 56.695312 Z M 146.984375 7.695312 "/>
<path style=" stroke:none;fill-rule:nonzero;fill:rgb(100%,100%,100%);fill-opacity:1;" d="M 132.984375 28.695312 L 153.984375 28.695312 L 153.984375 35.695312 L 132.984375 35.695312 Z M 132.984375 28.695312 "/>
<path style=" stroke:none;fill-rule:nonzero;fill:rgb(0%,39.215088%,60.784912%);fill-opacity:1;" d="M 155.101562 26.902344 L 155.023438 37.308594 L 149.859375 32.144531 Z M 155.101562 26.902344 "/>
<path style=" stroke:none;fill-rule:nonzero;fill:rgb(100%,100%,100%);fill-opacity:1;" d="M 49.109375 35.304688 L 70.117188 35.304688 L 70.117188 42.304688 L 49.109375 42.304688 Z M 49.109375 35.304688 "/>
<path style=" stroke:none;fill-rule:nonzero;fill:rgb(100%,100%,100%);fill-opacity:1;" d="M 104.890625 35.480469 L 125.902344 35.480469 L 125.902344 42.480469 L 104.890625 42.480469 Z M 104.890625 35.480469 "/>
<path style=" stroke:none;fill-rule:nonzero;fill:rgb(100%,100%,100%);fill-opacity:1;" d="M 104.957031 49.660156 L 125.957031 49.660156 L 125.957031 56.660156 L 104.957031 56.660156 Z M 104.957031 49.660156 "/>
<path style=" stroke:none;fill-rule:nonzero;fill:rgb(100%,100%,100%);fill-opacity:1;" d="M 90.949219 112.652344 L 97.949219 112.652344 L 97.949219 63.601562 L 90.949219 63.601562 Z M 90.949219 112.652344 "/>
<path style=" stroke:none;fill-rule:nonzero;fill:rgb(100%,100%,100%);fill-opacity:1;" d="M 132.957031 112.71875 L 139.957031 112.71875 L 139.957031 63.71875 L 132.957031 63.71875 Z M 132.957031 112.71875 "/>
<path style=" stroke:none;fill-rule:nonzero;fill:rgb(100%,100%,100%);fill-opacity:1;" d="M 132.957031 70.601562 L 153.957031 70.601562 L 153.957031 63.601562 L 132.957031 63.601562 Z M 132.957031 70.601562 "/>
<path style=" stroke:none;fill-rule:nonzero;fill:rgb(100%,100%,100%);fill-opacity:1;" d="M 146.984375 112.71875 L 153.984375 112.71875 L 153.984375 63.71875 L 146.984375 63.71875 Z M 146.984375 112.71875 "/>
<path style=" stroke:none;fill-rule:nonzero;fill:rgb(100%,100%,100%);fill-opacity:1;" d="M 132.984375 91.71875 L 153.984375 91.71875 L 153.984375 84.71875 L 132.984375 84.71875 Z M 132.984375 91.71875 "/>
<path style=" stroke:none;fill-rule:nonzero;fill:rgb(100%,100%,100%);fill-opacity:1;" d="M 132.984375 112.652344 L 153.984375 112.652344 L 153.984375 105.652344 L 132.984375 105.652344 Z M 132.984375 112.652344 "/>
<path style=" stroke:none;fill-rule:nonzero;fill:rgb(0%,39.215088%,60.784912%);fill-opacity:1;" d="M 155.101562 82.925781 L 155.023438 93.332031 L 149.859375 88.167969 Z M 155.101562 82.925781 "/>
<path style=" stroke:none;fill-rule:nonzero;fill:rgb(100%,100%,100%);fill-opacity:1;" d="M 104.84375 70.503906 L 125.855469 70.503906 L 125.855469 63.503906 L 104.84375 63.503906 Z M 104.84375 70.503906 "/>
<path style=" stroke:none;fill-rule:nonzero;fill:rgb(100%,100%,100%);fill-opacity:1;" d="M 104.808594 63.832031 L 104.808594 98.832031 L 111.808594 98.832031 L 111.808594 63.832031 Z M 104.808594 63.832031 "/>
<path style=" stroke:none;fill-rule:nonzero;fill:rgb(100%,100%,100%);fill-opacity:1;" d="M 118.988281 63.890625 L 118.988281 98.890625 L 125.988281 98.890625 L 125.988281 63.890625 Z M 118.988281 63.890625 "/>
<path style=" stroke:none;fill-rule:nonzero;fill:rgb(100%,100%,100%);fill-opacity:1;" d="M 104.976562 84.503906 L 125.988281 84.503906 L 125.988281 77.503906 L 104.976562 77.503906 Z M 104.976562 84.503906 "/>
<path style=" stroke:none;fill-rule:nonzero;fill:rgb(100%,100%,100%);fill-opacity:1;" d="M 126.042969 112.703125 L 90.949219 112.703125 L 90.949219 105.703125 L 126.042969 105.703125 Z M 126.042969 112.703125 "/>
<path style=" stroke:none;fill-rule:nonzero;fill:rgb(0%,0%,0%);fill-opacity:1;" d="M 175.066406 7.695312 L 280.023438 112.652344 L 175.066406 112.652344 Z M 175.066406 7.695312 "/>
<path style=" stroke:none;fill-rule:nonzero;fill:rgb(90.98053%,70.980835%,31.37207%);fill-opacity:1;" d="M 219.566406 7.695312 L 324.523438 112.652344 L 219.566406 112.652344 Z M 219.566406 7.695312 "/>
<path style=" stroke:none;fill-rule:nonzero;fill:rgb(0%,39.215088%,60.784912%);fill-opacity:1;" d="M 219.570312 52.226562 L 280.070312 112.726562 L 219.570312 112.726562 Z M 219.570312 52.226562 "/>
</g>
</svg>
