<?xml version="1.0" encoding="UTF-8"?>
<svg xmlns="http://www.w3.org/2000/svg" xmlns:xlink="http://www.w3.org/1999/xlink" width="233pt" height="50pt" viewBox="0 0 233 50" version="1.1">
<g id="surface1">
<path style=" stroke:none;fill-rule:nonzero;fill:rgb(100%,100%,100%);fill-opacity:1;" d="M 118.703125 0.109375 L 41.828125 0.109375 L 41.828125 7.109375 L 118.703125 7.109375 Z M 118.703125 0.109375 "/>
<path style=" stroke:none;fill-rule:nonzero;fill:rgb(100%,100%,100%);fill-opacity:1;" d="M 69.738281 0.109375 L 76.738281 0.109375 L 76.738281 49.160156 L 69.738281 49.160156 Z M 69.738281 0.109375 "/>
<path style=" stroke:none;fill-rule:nonzero;fill:rgb(100%,100%,100%);fill-opacity:1;" d="M 83.71875 0.109375 L 90.71875 0.109375 L 90.71875 49.160156 L 83.71875 49.160156 Z M 83.71875 0.109375 "/>
<path style=" stroke:none;fill-rule:nonzero;fill:rgb(100%,100%,100%);fill-opacity:1;" d="M 41.746094 13.832031 L 62.757812 13.832031 L 62.757812 20.832031 L 41.746094 20.832031 Z M 41.746094 13.832031 "/>
<path style=" stroke:none;fill-rule:nonzero;fill:rgb(100%,100%,100%);fill-opacity:1;" d="M 48.710938 14.160156 L 48.710938 49.160156 L 41.710938 49.160156 L 41.710938 14.160156 Z M 48.710938 14.160156 "/>
<path style=" stroke:none;fill-rule:nonzero;fill:rgb(100%,100%,100%);fill-opacity:1;" d="M 62.890625 14.21875 L 62.890625 49.21875 L 55.890625 49.21875 L 55.890625 14.21875 Z M 62.890625 14.21875 "/>
<path style=" stroke:none;fill-rule:nonzero;fill:rgb(100%,100%,100%);fill-opacity:1;" d="M 97.703125 13.832031 L 118.703125 13.832031 L 118.703125 20.832031 L 97.703125 20.832031 Z M 97.703125 13.832031 "/>
<path style=" stroke:none;fill-rule:nonzero;fill:rgb(100%,100%,100%);fill-opacity:1;" d="M 104.664062 14.21875 L 104.664062 49.21875 L 97.664062 49.21875 L 97.664062 14.21875 Z M 104.664062 14.21875 "/>
<path style=" stroke:none;fill-rule:nonzero;fill:rgb(100%,100%,100%);fill-opacity:1;" d="M 14.53125 0.109375 L 21.53125 0.109375 L 21.53125 49.160156 L 14.53125 49.160156 Z M 14.53125 0.109375 "/>
<path style=" stroke:none;fill-rule:nonzero;fill:rgb(100%,100%,100%);fill-opacity:1;" d="M 0.03125 0.109375 L 0.03125 7.109375 L 35.03125 7.109375 L 35.03125 0.109375 Z M 0.03125 0.109375 "/>
<path style=" stroke:none;fill-rule:nonzero;fill:rgb(100%,100%,100%);fill-opacity:1;" d="M 28.03125 0.109375 L 35.03125 0.109375 L 35.03125 49.160156 L 28.03125 49.160156 Z M 28.03125 0.109375 "/>
<path style=" stroke:none;fill-rule:nonzero;fill:rgb(100%,100%,100%);fill-opacity:1;" d="M 0.03125 0.109375 L 7.03125 0.109375 L 7.03125 49.160156 L 0.03125 49.160156 Z M 0.03125 0.109375 "/>
<path style=" stroke:none;fill-rule:nonzero;fill:rgb(100%,100%,100%);fill-opacity:1;" d="M 125.730469 0.222656 L 132.730469 0.222656 L 132.730469 49.222656 L 125.730469 49.222656 Z M 125.730469 0.222656 "/>
<path style=" stroke:none;fill-rule:nonzero;fill:rgb(100%,100%,100%);fill-opacity:1;" d="M 125.730469 0.109375 L 146.730469 0.109375 L 146.730469 7.109375 L 125.730469 7.109375 Z M 125.730469 0.109375 "/>
<path style=" stroke:none;fill-rule:nonzero;fill:rgb(100%,100%,100%);fill-opacity:1;" d="M 139.757812 0.222656 L 146.757812 0.222656 L 146.757812 49.222656 L 139.757812 49.222656 Z M 139.757812 0.222656 "/>
<path style=" stroke:none;fill-rule:nonzero;fill:rgb(100%,100%,100%);fill-opacity:1;" d="M 125.757812 21.222656 L 146.757812 21.222656 L 146.757812 28.222656 L 125.757812 28.222656 Z M 125.757812 21.222656 "/>
<path style=" stroke:none;fill-rule:nonzero;fill:rgb(0%,39.215088%,60.784912%);fill-opacity:1;" d="M 147.875 19.429688 L 147.796875 29.835938 L 142.632812 24.671875 Z M 147.875 19.429688 "/>
<path style=" stroke:none;fill-rule:nonzero;fill:rgb(100%,100%,100%);fill-opacity:1;" d="M 41.878906 27.832031 L 62.890625 27.832031 L 62.890625 34.832031 L 41.878906 34.832031 Z M 41.878906 27.832031 "/>
<path style=" stroke:none;fill-rule:nonzero;fill:rgb(100%,100%,100%);fill-opacity:1;" d="M 97.664062 28.011719 L 118.675781 28.011719 L 118.675781 35.011719 L 97.664062 35.011719 Z M 97.664062 28.011719 "/>
<path style=" stroke:none;fill-rule:nonzero;fill:rgb(100%,100%,100%);fill-opacity:1;" d="M 97.730469 42.1875 L 118.730469 42.1875 L 118.730469 49.1875 L 97.730469 49.1875 Z M 97.730469 42.1875 "/>
<path style=" stroke:none;fill-rule:nonzero;fill:rgb(100%,100%,100%);fill-opacity:1;" d="M 162.945312 49.609375 L 169.945312 49.609375 L 169.945312 0.558594 L 162.945312 0.558594 Z M 162.945312 49.609375 "/>
<path style=" stroke:none;fill-rule:nonzero;fill:rgb(100%,100%,100%);fill-opacity:1;" d="M 204.953125 49.675781 L 211.953125 49.675781 L 211.953125 0.675781 L 204.953125 0.675781 Z M 204.953125 49.675781 "/>
<path style=" stroke:none;fill-rule:nonzero;fill:rgb(100%,100%,100%);fill-opacity:1;" d="M 204.953125 7.558594 L 225.953125 7.558594 L 225.953125 0.558594 L 204.953125 0.558594 Z M 204.953125 7.558594 "/>
<path style=" stroke:none;fill-rule:nonzero;fill:rgb(100%,100%,100%);fill-opacity:1;" d="M 218.980469 49.675781 L 225.980469 49.675781 L 225.980469 0.675781 L 218.980469 0.675781 Z M 218.980469 49.675781 "/>
<path style=" stroke:none;fill-rule:nonzero;fill:rgb(100%,100%,100%);fill-opacity:1;" d="M 204.980469 28.675781 L 225.980469 28.675781 L 225.980469 21.675781 L 204.980469 21.675781 Z M 204.980469 28.675781 "/>
<path style=" stroke:none;fill-rule:nonzero;fill:rgb(100%,100%,100%);fill-opacity:1;" d="M 204.980469 49.609375 L 225.980469 49.609375 L 225.980469 42.609375 L 204.980469 42.609375 Z M 204.980469 49.609375 "/>
<path style=" stroke:none;fill-rule:nonzero;fill:rgb(0%,39.215088%,60.784912%);fill-opacity:1;" d="M 227.097656 19.878906 L 227.023438 30.289062 L 221.855469 25.121094 Z M 227.097656 19.878906 "/>
<path style=" stroke:none;fill-rule:nonzero;fill:rgb(100%,100%,100%);fill-opacity:1;" d="M 176.839844 7.460938 L 197.851562 7.460938 L 197.851562 0.460938 L 176.839844 0.460938 Z M 176.839844 7.460938 "/>
<path style=" stroke:none;fill-rule:nonzero;fill:rgb(100%,100%,100%);fill-opacity:1;" d="M 176.804688 0.785156 L 176.804688 35.785156 L 183.804688 35.785156 L 183.804688 0.785156 Z M 176.804688 0.785156 "/>
<path style=" stroke:none;fill-rule:nonzero;fill:rgb(100%,100%,100%);fill-opacity:1;" d="M 190.984375 0.847656 L 190.984375 35.847656 L 197.984375 35.847656 L 197.984375 0.847656 Z M 190.984375 0.847656 "/>
<path style=" stroke:none;fill-rule:nonzero;fill:rgb(100%,100%,100%);fill-opacity:1;" d="M 176.972656 21.460938 L 197.984375 21.460938 L 197.984375 14.460938 L 176.972656 14.460938 Z M 176.972656 21.460938 "/>
<path style=" stroke:none;fill-rule:nonzero;fill:rgb(100%,100%,100%);fill-opacity:1;" d="M 198.042969 49.660156 L 162.945312 49.660156 L 162.945312 42.660156 L 198.042969 42.660156 Z M 198.042969 49.660156 "/>
</g>
</svg>
